<?xml version="1.0" encoding="UTF-8" standalone="no"?>
<!-- Created with Inkscape (http://www.inkscape.org/) -->

<svg
   xmlns:dc="http://purl.org/dc/elements/1.1/"
   xmlns:cc="http://creativecommons.org/ns#"
   xmlns:rdf="http://www.w3.org/1999/02/22-rdf-syntax-ns#"
   xmlns:svg="http://www.w3.org/2000/svg"
   xmlns="http://www.w3.org/2000/svg"
   xmlns:sodipodi="http://sodipodi.sourceforge.net/DTD/sodipodi-0.dtd"
   xmlns:inkscape="http://www.inkscape.org/namespaces/inkscape"
   version="1.1"
   id="svg2"
   xml:space="preserve"
   width="800"
   height="600"
   viewBox="0 0 800 600"
   sodipodi:docname="1021.svg"
   inkscape:export-filename="back.png"
   inkscape:export-xdpi="89.850578"
   inkscape:export-ydpi="89.850578"
   inkscape:version="0.92.5 (2060ec1f9f, 2020-04-08)"><metadata
     id="metadata8"><rdf:RDF><cc:Work
         rdf:about=""><dc:format>image/svg+xml</dc:format><dc:type
           rdf:resource="http://purl.org/dc/dcmitype/StillImage" /><dc:title></dc:title></cc:Work></rdf:RDF></metadata><defs
     id="defs6"><clipPath
       clipPathUnits="userSpaceOnUse"
       id="clipPath410"><path
         d="m 4918.73,2163.05 227.36,928.21 -859.11,509.22 495.88,228.54 637.87,-245.97 c 0,0 3.87,-1123.99 0,-1135.31 -3.87,-11.31 -236.29,-388.42 -236.29,-388.42 l -265.71,103.73"
         id="path408"
         inkscape:connector-curvature="0" /></clipPath><clipPath
       clipPathUnits="userSpaceOnUse"
       id="clipPath462"><path
         d="m 4918.73,2163.05 227.36,928.21 -859.11,509.22 -1047.47,-389.56 803.84,-1048.94 c 0,0 663.67,-378.19 659.81,-389.51 -3.88,-11.32 481.28,286.85 481.28,286.85 l -265.71,103.73"
         id="path460"
         inkscape:connector-curvature="0" /></clipPath></defs><sodipodi:namedview
     pagecolor="#ffffff"
     bordercolor="#666666"
     borderopacity="1"
     objecttolerance="10"
     gridtolerance="10"
     guidetolerance="10"
     inkscape:pageopacity="0"
     inkscape:pageshadow="2"
     inkscape:window-width="1366"
     inkscape:window-height="704"
     id="namedview4"
     showgrid="false"
     inkscape:zoom="0.87666667"
     inkscape:cx="395.43726"
     inkscape:cy="300"
     inkscape:window-x="0"
     inkscape:window-y="27"
     inkscape:window-maximized="1"
     inkscape:current-layer="g12" /><g
     id="g10"
     inkscape:groupmode="layer"
     inkscape:label="ink_ext_XXXXXX"
     transform="matrix(1.3333333,0,0,-1.3333333,0,600)"><g
       id="g12"
       transform="scale(0.1)"><path
         d="m 4117.61,872.648 c -25.65,0 -50.14,5.18 -68.44,15.743 L 2621.52,1712.66 c -40.39,23.31 -35.33,64.04 11.32,90.96 l 73.27,42.29 1348.87,-778.76 c 0.16,-0.09 0.32,-0.18 0.47,-0.27 18.99,-10.81 44.27,-16.11 70.74,-16.11 32.22,0 66.2,7.85 92.75,23.17 l 895.42,516.8 75.82,-43.78 c 40.39,-23.31 35.32,-64.04 -11.31,-90.96 L 4206.74,894.922 c -25.5,-14.723 -58.16,-22.274 -89.13,-22.274"
         style="fill:#ffb380;fill-opacity:1;fill-rule:nonzero;stroke:none"
         id="path200"
         inkscape:connector-curvature="0" /><path
         d="m 5590.2,3139.78 -1485.55,857.69 c -17.25,9.96 -34.78,11.49 -50.34,6.17 l 0.1,0.16 -2.71,-1.03 -0.65,-0.24 -53.68,-20.55 48.18,-23.58 c -0.23,-0.89 -0.5,-1.72 -0.69,-2.63 L 3802.88,2854.33 c -12.11,-55.12 12.14,-119.48 54.16,-143.73 l 1449.83,-837.06 -5.17,-61.44 58.67,22.74 c 19.71,9.22 35.5,30.07 42.02,59.77 l 241.98,1101.44 c 12.11,55.12 -12.15,119.48 -54.17,143.73"
         style="fill:#aa4400;fill-opacity:1;fill-rule:nonzero;stroke:none"
         id="path202"
         inkscape:connector-curvature="0" /><path
         d="m 5590.2,3139.78 -1485.55,857.69 c -17.25,9.96 -34.78,11.49 -50.34,6.17 l 0.1,0.16 -2.71,-1.03 -0.65,-0.24 -53.68,-20.55 48.18,-23.58 c -0.23,-0.89 -0.5,-1.72 -0.69,-2.63 l -159.48,-725.92 726.86,-566.29 1024.88,417.02 c -9.85,25.53 -26.21,47.25 -46.92,59.2"
         style="fill:#aa4400;fill-opacity:1;fill-rule:nonzero;stroke:none"
         id="path204"
         inkscape:connector-curvature="0" /><path
         d="m 5534.18,2970.48 113.09,48.14 c 2.07,43.8 -16.06,89.05 -45.81,113.24 l -179.01,-75.3 111.73,-86.08"
         style="fill:#aa4400;fill-opacity:1;fill-rule:nonzero;stroke:none"
         id="path206"
         inkscape:connector-curvature="0" /><path
         d="m 5250.09,1817.94 -1485.55,857.68 c -42.03,24.26 -66.28,88.62 -54.17,143.73 l 241.98,1101.45 c 12.1,55.12 55.99,80.14 98.01,55.88 l 1485.55,-857.69 c 42.02,-24.26 66.28,-88.61 54.17,-143.74 L 5348.11,1873.82 c -12.11,-55.13 -56,-80.15 -98.02,-55.88"
         style="fill:#ff9955;fill-opacity:1;fill-rule:nonzero;stroke:none"
         id="path208"
         inkscape:connector-curvature="0" /><path
         d="m 5550.18,3124.22 -1485.56,857.67 c -20.35,11.75 -41.08,11.74 -58.48,2.54 13.97,3.06 29.18,0.93 44.22,-7.76 L 5535.91,3119 c 42.02,-24.26 66.28,-88.63 54.17,-143.75 L 5348.11,1873.82 c -6.24,-28.42 -21.01,-48.64 -39.53,-58.41 25.07,5.48 46.01,28.22 53.79,63.62 l 241.97,1101.44 c 12.11,55.13 -12.14,119.48 -54.16,143.75"
         style="fill:#ffffff;fill-opacity:1;fill-rule:nonzero;stroke:none"
         id="path210"
         inkscape:connector-curvature="0" /><path
         d="M 5217.88,1899.87 3820.75,2706.1 c -38.45,22.21 -60.64,81.1 -49.56,131.54 l 221.42,1007.91 c 11.08,50.43 51.24,73.33 89.7,51.13 l 1397.13,-806.24 c 38.45,-22.2 60.64,-81.1 49.57,-131.53 L 5307.58,1951 c -11.08,-50.44 -51.24,-73.33 -89.7,-51.13"
         style="fill:#ffffff;fill-opacity:1;fill-rule:nonzero;stroke:none"
         id="path212"
         inkscape:connector-curvature="0" /><path
         d="M 5217.88,1899.87 3820.75,2706.1 c -38.45,22.21 -60.64,81.1 -49.56,131.54 l 221.42,1007.91 c 11.08,50.43 51.24,73.33 89.7,51.13 l 1397.13,-806.24 c 38.45,-22.2 60.64,-81.1 49.57,-131.53 L 5307.58,1951 c -11.08,-50.44 -51.24,-73.33 -89.7,-51.13"
         style="fill:#ffe6d5;fill-opacity:1;fill-rule:nonzero;stroke:none"
         id="path214"
         inkscape:connector-curvature="0" /><path
         d="m 5230.06,1904.82 -1397.13,806.24 c -38.45,22.2 -60.64,81.1 -49.57,131.53 l 221.43,1007.92 c 5.61,25.53 18.69,43.9 35.2,53.05 -22.15,-5.7 -40.45,-26.46 -47.38,-58.01 l -221.42,-1007.9 c -11.08,-50.45 11.11,-109.34 49.56,-131.55 l 1397.13,-806.24 c 19,-10.96 38.38,-10.85 54.5,-1.92 -13.28,-3.42 -27.91,-1.44 -42.32,6.88"
         style="fill:#ffb380;fill-opacity:1;fill-rule:nonzero;stroke:none"
         id="path216"
         inkscape:connector-curvature="0" /><path
         d="m 5270.6,1780.59 -203.07,26.81 -1310.82,756.8 c -42.02,24.27 -115.43,21.22 -163.95,-6.8 l -928.84,-536.06 -122.79,16.21 v -69.67 l 0.11,-0.02 c -0.8,-16.1 8.37,-31.58 28.2,-43.04 l 1485.54,-857.67 c 42.03,-24.27 115.43,-21.22 163.96,6.79 l 1011.55,583.82 c 27.3,15.77 40.91,36.07 40.11,55.14 v 67.69"
         style="fill:#552200;fill-opacity:1;fill-rule:nonzero;stroke:none"
         id="path218"
         inkscape:connector-curvature="0" /><path
         d="m 4285.7,2258.8 -93.14,53.77 H 3168.67 l -504.75,-291.23 -122.79,16.21 v -69.67 l 0.11,-0.02 c -0.8,-16.1 8.37,-31.58 28.2,-43.04 l 1485.54,-857.67 c 22.21,-12.82 53.19,-17.94 84.62,-15.86 l 146.1,1207.51"
         style="fill:#aa4400;fill-opacity:1;fill-rule:nonzero;stroke:none"
         id="path220"
         inkscape:connector-curvature="0" /><path
         d="m 2595.62,2030.35 -54.49,7.2 v -69.67 l 0.11,-0.02 c -0.8,-16.1 8.37,-31.58 28.2,-43.04 l 26.18,-15.1 v 120.63"
         style="fill:#d45500;fill-opacity:1;fill-rule:nonzero;stroke:none"
         id="path222"
         inkscape:connector-curvature="0" /><path
         d="m 4069.94,1060.19 c 39.84,-15.1 96.79,-11.81 139.31,8.66 v 155.4 h -139.31 v -164.06"
         style="fill:#d45500;fill-opacity:1;fill-rule:nonzero;stroke:none"
         id="path224"
         inkscape:connector-curvature="0" /><path
         d="m 4054.98,1136.74 -1485.54,857.67 c -42.03,24.27 -36.75,66.64 11.77,94.66 l 1011.55,583.83 c 48.52,28.01 121.93,31.05 163.95,6.8 l 1485.55,-857.69 c 42.02,-24.27 36.76,-66.64 -11.77,-94.66 L 4218.94,1143.53 c -48.53,-28.01 -121.93,-31.06 -163.96,-6.79"
         style="fill:#ffccaa;fill-opacity:1;fill-rule:nonzero;stroke:none"
         id="path226"
         inkscape:connector-curvature="0" /><path
         d="M 5230.49,1752.8 4218.94,1168.97 c -48.53,-28 -121.93,-31.05 -163.96,-6.79 l -1485.54,857.68 c -13.78,7.95 -22.38,17.87 -26.13,28.58 -6.57,-19.88 1.81,-39.98 26.13,-54.03 l 1485.54,-857.67 c 42.03,-24.27 115.43,-21.22 163.96,6.79 l 1011.55,583.82 c 32.62,18.83 45.59,44.13 37.89,66.09 -4.78,-14.49 -17.45,-28.84 -37.89,-40.64"
         style="fill:#ffffff;fill-opacity:1;fill-rule:nonzero;stroke:none"
         id="path228"
         inkscape:connector-curvature="0" /><path
         d="m 3201.26,2278.36 -67.21,38.81 c -5.4,3.11 -4.72,8.55 1.51,12.15 l 79.34,45.81 c 6.23,3.59 15.66,3.98 21.05,0.87 l 67.22,-38.8 c 5.4,-3.13 4.71,-8.57 -1.52,-12.16 l -79.33,-45.81 c -6.23,-3.6 -15.66,-3.99 -21.06,-0.87"
         style="fill:#916f6f;fill-opacity:1;fill-rule:nonzero;stroke:none"
         id="path230"
         inkscape:connector-curvature="0" /><path
         d="m 3305.06,2218.43 -67.22,38.81 c -5.39,3.11 -4.71,8.55 1.52,12.15 l 79.33,45.8 c 6.23,3.61 15.67,4 21.06,0.88 l 67.22,-38.8 c 5.4,-3.12 4.71,-8.57 -1.52,-12.16 l -79.33,-45.8 c -6.23,-3.61 -15.66,-4 -21.06,-0.88"
         style="fill:#916f6f;fill-opacity:1;fill-rule:nonzero;stroke:none"
         id="path232"
         inkscape:connector-curvature="0" /><path
         d="m 3408.86,2158.5 -67.21,38.8 c -5.4,3.12 -4.72,8.57 1.51,12.16 l 79.33,45.8 c 6.24,3.61 15.67,4 21.06,0.88 l 67.21,-38.81 c 5.4,-3.11 4.73,-8.55 -1.5,-12.15 l -79.35,-45.81 c -6.23,-3.6 -15.65,-3.99 -21.05,-0.87"
         style="fill:#916f6f;fill-opacity:1;fill-rule:nonzero;stroke:none"
         id="path234"
         inkscape:connector-curvature="0" /><path
         d="m 3552.42,2207.99 -67.21,38.81 c -5.39,3.11 -4.72,8.56 1.51,12.15 l 66.6,38.45 c 6.23,3.61 15.66,4 21.06,0.88 l 67.21,-38.81 c 5.39,-3.11 4.72,-8.55 -1.51,-12.16 l -66.6,-38.44 c -6.23,-3.61 -15.66,-4 -21.06,-0.88"
         style="fill:#916f6f;fill-opacity:1;fill-rule:nonzero;stroke:none"
         id="path236"
         inkscape:connector-curvature="0" /><path
         d="m 3656.22,2148.07 -67.21,38.79 c -5.39,3.12 -4.72,8.57 1.51,12.16 l 66.6,38.46 c 6.23,3.59 15.66,3.98 21.06,0.87 l 67.21,-38.81 c 5.39,-3.11 4.72,-8.55 -1.51,-12.16 l -66.6,-38.45 c -6.23,-3.59 -15.66,-3.98 -21.06,-0.86"
         style="fill:#916f6f;fill-opacity:1;fill-rule:nonzero;stroke:none"
         id="path238"
         inkscape:connector-curvature="0" /><path
         d="m 3760.02,2088.13 -67.21,38.81 c -5.4,3.12 -4.72,8.56 1.51,12.15 l 66.6,38.46 c 6.23,3.59 15.65,3.98 21.06,0.87 l 67.21,-38.81 c 5.4,-3.12 4.72,-8.56 -1.51,-12.15 l -66.6,-38.46 c -6.23,-3.59 -15.66,-3.98 -21.06,-0.87"
         style="fill:#916f6f;fill-opacity:1;fill-rule:nonzero;stroke:none"
         id="path240"
         inkscape:connector-curvature="0" /><path
         d="m 3863.83,2028.2 -67.22,38.81 c -5.4,3.12 -4.72,8.56 1.51,12.16 l 66.6,38.45 c 6.23,3.6 15.66,3.99 21.05,0.87 l 67.22,-38.8 c 5.4,-3.12 4.72,-8.57 -1.51,-12.16 l -66.59,-38.45 c -6.24,-3.6 -15.67,-3.99 -21.06,-0.88"
         style="fill:#916f6f;fill-opacity:1;fill-rule:nonzero;stroke:none"
         id="path242"
         inkscape:connector-curvature="0" /><path
         d="m 3967.63,1968.27 -67.22,38.81 c -5.4,3.11 -4.71,8.56 1.52,12.16 l 66.59,38.44 c 6.23,3.61 15.66,4 21.05,0.88 l 67.22,-38.8 c 5.4,-3.12 4.73,-8.56 -1.51,-12.16 l -66.6,-38.45 c -6.23,-3.6 -15.66,-3.99 -21.05,-0.88"
         style="fill:#916f6f;fill-opacity:1;fill-rule:nonzero;stroke:none"
         id="path244"
         inkscape:connector-curvature="0" /><path
         d="m 4071.43,1908.35 -67.22,38.8 c -5.4,3.12 -4.72,8.56 1.52,12.16 l 66.6,38.45 c 6.23,3.6 15.65,3.99 21.05,0.87 l 67.21,-38.81 c 5.4,-3.11 4.72,-8.55 -1.51,-12.15 l -66.6,-38.45 c -6.23,-3.6 -15.66,-3.99 -21.05,-0.87"
         style="fill:#916f6f;fill-opacity:1;fill-rule:nonzero;stroke:none"
         id="path246"
         inkscape:connector-curvature="0" /><path
         d="m 4175.23,1848.42 -67.22,38.81 c -5.39,3.11 -4.72,8.55 1.51,12.14 l 66.61,38.46 c 6.23,3.6 15.65,3.99 21.05,0.87 l 67.22,-38.81 c 5.39,-3.11 4.71,-8.55 -1.52,-12.15 l -66.6,-38.45 c -6.23,-3.6 -15.65,-3.99 -21.05,-0.87"
         style="fill:#916f6f;fill-opacity:1;fill-rule:nonzero;stroke:none"
         id="path248"
         inkscape:connector-curvature="0" /><path
         d="m 4279.03,1788.49 -67.22,38.8 c -5.39,3.12 -4.72,8.56 1.51,12.16 l 66.6,38.45 c 6.23,3.6 15.66,3.99 21.06,0.87 l 67.22,-38.8 c 5.39,-3.12 4.71,-8.56 -1.52,-12.16 l -66.6,-38.45 c -6.23,-3.6 -15.65,-3.99 -21.05,-0.87"
         style="fill:#916f6f;fill-opacity:1;fill-rule:nonzero;stroke:none"
         id="path250"
         inkscape:connector-curvature="0" /><path
         d="m 4382.82,1728.55 -67.21,38.81 c -5.39,3.12 -4.72,8.57 1.51,12.16 l 66.6,38.45 c 6.23,3.6 15.66,3.99 21.06,0.88 l 67.21,-38.81 c 5.4,-3.12 4.72,-8.56 -1.51,-12.16 l -66.6,-38.45 c -6.23,-3.6 -15.65,-3.99 -21.06,-0.88"
         style="fill:#916f6f;fill-opacity:1;fill-rule:nonzero;stroke:none"
         id="path252"
         inkscape:connector-curvature="0" /><path
         d="m 4486.62,1668.63 -67.2,38.8 c -5.4,3.13 -4.73,8.57 1.5,12.16 l 66.6,38.46 c 6.23,3.59 15.67,3.98 21.06,0.87 l 67.21,-38.81 c 5.4,-3.12 4.72,-8.56 -1.51,-12.16 l -66.6,-38.45 c -6.23,-3.59 -15.66,-3.98 -21.06,-0.87"
         style="fill:#916f6f;fill-opacity:1;fill-rule:nonzero;stroke:none"
         id="path254"
         inkscape:connector-curvature="0" /><path
         d="m 3705.36,2236.37 -67.2,38.81 c -5.4,3.11 -4.73,8.55 1.5,12.14 l 66.6,38.46 c 6.23,3.59 15.67,3.99 21.06,0.87 l 67.21,-38.81 c 5.4,-3.11 4.72,-8.55 -1.51,-12.16 l -66.6,-38.44 c -6.23,-3.6 -15.66,-3.99 -21.06,-0.87"
         style="fill:#916f6f;fill-opacity:1;fill-rule:nonzero;stroke:none"
         id="path256"
         inkscape:connector-curvature="0" /><path
         d="m 3600.02,2297.19 -67.21,38.81 c -5.41,3.11 -4.73,8.55 1.51,12.15 l 66.59,38.45 c 6.23,3.59 15.66,3.99 21.06,0.87 l 67.21,-38.8 c 5.4,-3.11 4.73,-8.56 -1.51,-12.16 l -66.59,-38.45 c -6.23,-3.6 -15.67,-3.99 -21.06,-0.87"
         style="fill:#916f6f;fill-opacity:1;fill-rule:nonzero;stroke:none"
         id="path258"
         inkscape:connector-curvature="0" /><path
         d="m 3494.49,2358.11 -144.76,83.58 c -5.39,3.11 -4.72,8.56 1.51,12.16 l 66.6,38.44 c 6.23,3.61 15.66,4 21.06,0.88 l 144.76,-83.58 c 5.4,-3.12 4.72,-8.56 -1.51,-12.16 l -66.6,-38.45 c -6.23,-3.59 -15.65,-3.98 -21.06,-0.87"
         style="fill:#916f6f;fill-opacity:1;fill-rule:nonzero;stroke:none"
         id="path260"
         inkscape:connector-curvature="0" /><path
         d="m 3568.25,2432.2 -117.48,67.83 c -5.39,3.11 -4.71,8.55 1.52,12.16 l 66.6,38.44 c 6.23,3.6 15.65,3.99 21.05,0.87 l 117.48,-67.82 c 5.39,-3.11 4.72,-8.55 -1.51,-12.16 l -66.6,-38.44 c -6.23,-3.61 -15.66,-4 -21.06,-0.88"
         style="fill:#916f6f;fill-opacity:1;fill-rule:nonzero;stroke:none"
         id="path262"
         inkscape:connector-curvature="0" /><path
         d="m 3809.17,2176.43 -67.21,38.81 c -5.4,3.12 -4.73,8.56 1.51,12.16 l 66.59,38.45 c 6.23,3.59 15.67,3.98 21.06,0.87 l 67.21,-38.8 c 5.4,-3.13 4.72,-8.57 -1.51,-12.16 l -66.59,-38.46 c -6.23,-3.59 -15.67,-3.98 -21.06,-0.87"
         style="fill:#916f6f;fill-opacity:1;fill-rule:nonzero;stroke:none"
         id="path264"
         inkscape:connector-curvature="0" /><path
         d="m 3912.97,2116.5 -67.22,38.81 c -5.4,3.12 -4.71,8.56 1.52,12.16 l 66.59,38.45 c 6.24,3.6 15.66,3.99 21.05,0.88 l 67.22,-38.81 c 5.4,-3.12 4.73,-8.57 -1.5,-12.16 l -66.6,-38.45 c -6.23,-3.6 -15.67,-3.99 -21.06,-0.88"
         style="fill:#916f6f;fill-opacity:1;fill-rule:nonzero;stroke:none"
         id="path266"
         inkscape:connector-curvature="0" /><path
         d="m 4016.77,2056.57 -67.22,38.81 c -5.4,3.12 -4.71,8.56 1.52,12.16 l 66.6,38.45 c 6.23,3.6 15.65,3.99 21.05,0.87 l 67.21,-38.8 c 5.4,-3.12 4.73,-8.56 -1.5,-12.16 l -66.61,-38.45 c -6.23,-3.6 -15.65,-3.99 -21.05,-0.88"
         style="fill:#916f6f;fill-opacity:1;fill-rule:nonzero;stroke:none"
         id="path268"
         inkscape:connector-curvature="0" /><path
         d="m 4120.57,1996.65 -67.22,38.81 c -5.39,3.11 -4.71,8.55 1.52,12.15 l 66.6,38.45 c 6.23,3.6 15.65,3.99 21.05,0.87 l 67.22,-38.81 c 5.39,-3.11 4.72,-8.55 -1.51,-12.14 l -66.61,-38.46 c -6.23,-3.59 -15.65,-3.99 -21.05,-0.87"
         style="fill:#916f6f;fill-opacity:1;fill-rule:nonzero;stroke:none"
         id="path270"
         inkscape:connector-curvature="0" /><path
         d="m 4224.37,1936.72 -67.22,38.81 c -5.39,3.11 -4.72,8.55 1.51,12.15 l 66.61,38.45 c 6.23,3.6 15.65,3.99 21.05,0.87 l 67.22,-38.8 c 5.39,-3.12 4.71,-8.56 -1.52,-12.16 l -66.6,-38.45 c -6.23,-3.6 -15.65,-3.99 -21.05,-0.87"
         style="fill:#916f6f;fill-opacity:1;fill-rule:nonzero;stroke:none"
         id="path272"
         inkscape:connector-curvature="0" /><path
         d="m 4328.17,1876.79 -67.21,38.81 c -5.4,3.11 -4.73,8.55 1.5,12.15 l 66.6,38.45 c 6.24,3.6 15.66,3.99 21.06,0.88 l 67.22,-38.81 c 5.4,-3.11 4.71,-8.56 -1.52,-12.16 l -66.6,-38.44 c -6.23,-3.61 -15.65,-4 -21.05,-0.88"
         style="fill:#916f6f;fill-opacity:1;fill-rule:nonzero;stroke:none"
         id="path274"
         inkscape:connector-curvature="0" /><path
         d="m 4431.98,1816.86 -67.22,38.8 c -5.4,3.12 -4.73,8.57 1.5,12.16 l 66.6,38.45 c 6.23,3.6 15.67,3.99 21.06,0.88 l 67.22,-38.81 c 5.4,-3.12 4.71,-8.56 -1.52,-12.16 l -66.59,-38.45 c -6.24,-3.6 -15.66,-3.99 -21.05,-0.87"
         style="fill:#916f6f;fill-opacity:1;fill-rule:nonzero;stroke:none"
         id="path276"
         inkscape:connector-curvature="0" /><path
         d="m 4535.77,1756.93 -67.21,38.81 c -5.4,3.12 -4.72,8.56 1.51,12.15 l 66.59,38.46 c 6.24,3.59 15.67,3.98 21.06,0.87 l 67.21,-38.81 c 5.4,-3.12 4.73,-8.56 -1.51,-12.15 l -66.59,-38.46 c -6.23,-3.59 -15.67,-3.98 -21.06,-0.87"
         style="fill:#916f6f;fill-opacity:1;fill-rule:nonzero;stroke:none"
         id="path278"
         inkscape:connector-curvature="0" /><path
         d="m 4639.57,1697 -67.21,38.81 c -5.4,3.12 -4.72,8.55 1.51,12.16 l 66.6,38.45 c 6.23,3.59 15.66,3.98 21.06,0.86 l 67.2,-38.79 c 5.4,-3.12 4.73,-8.57 -1.5,-12.16 l -66.6,-38.46 c -6.23,-3.59 -15.67,-3.98 -21.06,-0.87"
         style="fill:#916f6f;fill-opacity:1;fill-rule:nonzero;stroke:none"
         id="path280"
         inkscape:connector-curvature="0" /><path
         d="m 4824.1,1590.46 -146.66,84.68 c -5.39,3.11 -4.71,8.55 1.52,12.15 l 66.6,38.45 c 6.23,3.6 15.65,3.99 21.05,0.87 l 146.66,-84.67 c 5.39,-3.11 4.72,-8.56 -1.51,-12.16 l -66.6,-38.44 c -6.23,-3.61 -15.66,-4 -21.06,-0.88"
         style="fill:#916f6f;fill-opacity:1;fill-rule:nonzero;stroke:none"
         id="path282"
         inkscape:connector-curvature="0" /><path
         d="m 5026.19,1707.14 -123.79,71.46 c -5.39,3.12 -4.71,8.56 1.52,12.16 l 66.6,38.45 c 6.23,3.6 15.65,3.99 21.05,0.87 l 123.78,-71.47 c 5.4,-3.11 4.73,-8.55 -1.5,-12.16 l -66.6,-38.44 c -6.23,-3.6 -15.67,-3.99 -21.06,-0.87"
         style="fill:#916f6f;fill-opacity:1;fill-rule:nonzero;stroke:none"
         id="path284"
         inkscape:connector-curvature="0" /><path
         d="m 3990.95,2188.16 -67.22,38.81 c -5.4,3.12 -4.72,8.56 1.51,12.15 l 66.6,38.46 c 6.23,3.59 15.66,3.98 21.05,0.87 l 67.22,-38.81 c 5.4,-3.12 4.72,-8.56 -1.51,-12.16 l -66.6,-38.45 c -6.24,-3.59 -15.66,-3.98 -21.05,-0.87"
         style="fill:#916f6f;fill-opacity:1;fill-rule:nonzero;stroke:none"
         id="path286"
         inkscape:connector-curvature="0" /><path
         d="m 3884.56,2249.58 -67.21,38.81 c -5.39,3.11 -4.72,8.55 1.51,12.16 l 66.6,38.44 c 6.23,3.6 15.66,4 21.06,0.87 l 67.21,-38.8 c 5.39,-3.11 4.72,-8.56 -1.51,-12.15 l -66.6,-38.46 c -6.23,-3.6 -15.66,-3.99 -21.06,-0.87"
         style="fill:#916f6f;fill-opacity:1;fill-rule:nonzero;stroke:none"
         id="path288"
         inkscape:connector-curvature="0" /><path
         d="m 3778.18,2311.01 -67.21,38.79 c -5.4,3.12 -4.73,8.57 1.5,12.16 l 66.6,38.45 c 6.24,3.6 15.67,3.99 21.06,0.88 l 67.22,-38.81 c 5.4,-3.12 4.71,-8.55 -1.52,-12.16 l -66.6,-38.45 c -6.23,-3.6 -15.65,-3.99 -21.05,-0.86"
         style="fill:#916f6f;fill-opacity:1;fill-rule:nonzero;stroke:none"
         id="path290"
         inkscape:connector-curvature="0" /><path
         d="m 3671.8,2372.42 -67.22,38.81 c -5.4,3.12 -4.71,8.55 1.52,12.15 l 66.6,38.46 c 6.23,3.59 15.65,3.98 21.05,0.86 l 67.21,-38.8 c 5.4,-3.12 4.73,-8.56 -1.5,-12.15 l -66.61,-38.46 c -6.23,-3.59 -15.66,-3.98 -21.05,-0.87"
         style="fill:#916f6f;fill-opacity:1;fill-rule:nonzero;stroke:none"
         id="path292"
         inkscape:connector-curvature="0" /><path
         d="m 4094.75,2128.23 -67.22,38.81 c -5.4,3.12 -4.72,8.56 1.52,12.16 l 66.59,38.45 c 6.24,3.59 15.66,3.98 21.05,0.87 l 67.22,-38.81 c 5.4,-3.12 4.73,-8.56 -1.51,-12.15 l -66.6,-38.46 c -6.23,-3.59 -15.66,-3.98 -21.05,-0.87"
         style="fill:#916f6f;fill-opacity:1;fill-rule:nonzero;stroke:none"
         id="path294"
         inkscape:connector-curvature="0" /><path
         d="m 4198.55,2068.3 -67.22,38.81 c -5.4,3.11 -4.72,8.55 1.51,12.16 l 66.61,38.44 c 6.23,3.61 15.65,4 21.05,0.88 l 67.21,-38.81 c 5.4,-3.11 4.72,-8.56 -1.51,-12.15 l -66.6,-38.45 c -6.23,-3.6 -15.66,-4 -21.05,-0.88"
         style="fill:#916f6f;fill-opacity:1;fill-rule:nonzero;stroke:none"
         id="path296"
         inkscape:connector-curvature="0" /><path
         d="m 4302.35,2008.37 -67.22,38.81 c -5.39,3.11 -4.72,8.56 1.51,12.16 l 66.6,38.44 c 6.24,3.61 15.66,4 21.06,0.88 l 67.22,-38.81 c 5.39,-3.11 4.71,-8.55 -1.52,-12.16 l -66.6,-38.44 c -6.23,-3.61 -15.65,-4 -21.05,-0.88"
         style="fill:#916f6f;fill-opacity:1;fill-rule:nonzero;stroke:none"
         id="path298"
         inkscape:connector-curvature="0" /><path
         d="m 4406.15,1948.45 -67.22,38.81 c -5.39,3.11 -4.72,8.55 1.51,12.14 l 66.6,38.46 c 6.23,3.59 15.66,3.99 21.06,0.87 l 67.21,-38.81 c 5.4,-3.11 4.72,-8.55 -1.51,-12.16 l -66.6,-38.44 c -6.23,-3.6 -15.65,-3.99 -21.05,-0.87"
         style="fill:#916f6f;fill-opacity:1;fill-rule:nonzero;stroke:none"
         id="path300"
         inkscape:connector-curvature="0" /><path
         d="m 4509.94,1888.52 -67.21,38.8 c -5.39,3.12 -4.72,8.56 1.51,12.16 l 66.6,38.45 c 6.23,3.59 15.66,3.98 21.06,0.87 l 67.21,-38.8 c 5.4,-3.13 4.72,-8.57 -1.51,-12.16 l -66.6,-38.46 c -6.23,-3.59 -15.66,-3.98 -21.06,-0.86"
         style="fill:#916f6f;fill-opacity:1;fill-rule:nonzero;stroke:none"
         id="path302"
         inkscape:connector-curvature="0" /><path
         d="m 4613.74,1828.58 -67.2,38.81 c -5.4,3.12 -4.73,8.56 1.5,12.16 l 66.6,38.45 c 6.23,3.6 15.67,3.99 21.06,0.88 l 67.21,-38.81 c 5.4,-3.12 4.72,-8.57 -1.51,-12.16 l -66.6,-38.45 c -6.23,-3.6 -15.66,-3.99 -21.06,-0.88"
         style="fill:#916f6f;fill-opacity:1;fill-rule:nonzero;stroke:none"
         id="path304"
         inkscape:connector-curvature="0" /><path
         d="m 4717.55,1768.65 -67.22,38.81 c -5.4,3.12 -4.72,8.56 1.52,12.16 l 66.59,38.45 c 6.23,3.6 15.66,3.99 21.05,0.87 l 67.22,-38.8 c 5.4,-3.12 4.73,-8.56 -1.51,-12.16 l -66.59,-38.45 c -6.23,-3.6 -15.67,-3.99 -21.06,-0.88"
         style="fill:#916f6f;fill-opacity:1;fill-rule:nonzero;stroke:none"
         id="path306"
         inkscape:connector-curvature="0" /><path
         d="m 4821.35,1708.73 -67.22,38.81 c -5.4,3.11 -4.71,8.55 1.52,12.15 l 66.59,38.45 c 6.24,3.6 15.66,3.99 21.06,0.87 l 67.21,-38.81 c 5.4,-3.11 4.73,-8.55 -1.5,-12.15 l -66.61,-38.45 c -6.23,-3.59 -15.66,-3.99 -21.05,-0.87"
         style="fill:#916f6f;fill-opacity:1;fill-rule:nonzero;stroke:none"
         id="path308"
         inkscape:connector-curvature="0" /><path
         d="m 4925.15,1648.8 -67.22,38.81 c -5.4,3.11 -4.71,8.55 1.52,12.16 l 66.6,38.44 c 6.23,3.6 15.65,3.99 21.05,0.87 l 67.22,-38.8 c 5.39,-3.12 4.72,-8.56 -1.51,-12.16 l -66.61,-38.45 c -6.23,-3.6 -15.65,-3.99 -21.05,-0.87"
         style="fill:#916f6f;fill-opacity:1;fill-rule:nonzero;stroke:none"
         id="path310"
         inkscape:connector-curvature="0" /><path
         d="m 3936.29,2336.4 -67.22,38.79 c -5.4,3.12 -4.72,8.57 1.52,12.16 l 66.59,38.46 c 6.23,3.59 15.66,3.98 21.05,0.87 l 67.22,-38.81 c 5.4,-3.11 4.73,-8.55 -1.51,-12.16 l -66.59,-38.44 c -6.23,-3.6 -15.67,-4 -21.06,-0.87"
         style="fill:#916f6f;fill-opacity:1;fill-rule:nonzero;stroke:none"
         id="path312"
         inkscape:connector-curvature="0" /><path
         d="m 3833,2396.02 -67.21,38.81 c -5.4,3.12 -4.72,8.56 1.51,12.15 l 66.6,38.46 c 6.23,3.59 15.65,3.98 21.05,0.87 l 67.22,-38.81 c 5.4,-3.12 4.72,-8.56 -1.51,-12.15 l -66.6,-38.46 c -6.24,-3.59 -15.66,-3.98 -21.06,-0.87"
         style="fill:#916f6f;fill-opacity:1;fill-rule:nonzero;stroke:none"
         id="path314"
         inkscape:connector-curvature="0" /><path
         d="m 3729.72,2455.65 -67.22,38.81 c -5.39,3.12 -4.71,8.56 1.52,12.16 l 66.6,38.45 c 6.23,3.59 15.65,3.98 21.05,0.87 l 67.22,-38.8 c 5.39,-3.13 4.72,-8.57 -1.51,-12.16 l -66.61,-38.46 c -6.23,-3.59 -15.65,-3.98 -21.05,-0.87"
         style="fill:#916f6f;fill-opacity:1;fill-rule:nonzero;stroke:none"
         id="path316"
         inkscape:connector-curvature="0" /><path
         d="m 3626.44,2515.28 -67.22,38.81 c -5.4,3.12 -4.72,8.56 1.51,12.16 l 66.61,38.45 c 6.23,3.6 15.65,3.99 21.05,0.88 l 67.21,-38.81 c 5.4,-3.12 4.72,-8.57 -1.51,-12.16 l -66.6,-38.45 c -6.23,-3.6 -15.66,-3.99 -21.05,-0.88"
         style="fill:#916f6f;fill-opacity:1;fill-rule:nonzero;stroke:none"
         id="path318"
         inkscape:connector-curvature="0" /><path
         d="m 3732.64,2576.6 -67.21,38.81 c -5.4,3.11 -4.72,8.55 1.51,12.16 l 22.02,12.7 c 6.23,3.61 15.65,4 21.05,0.88 l 67.22,-38.81 c 5.39,-3.11 4.72,-8.55 -1.51,-12.16 l -22.03,-12.7 c -6.23,-3.6 -15.65,-3.99 -21.05,-0.88"
         style="fill:#916f6f;fill-opacity:1;fill-rule:nonzero;stroke:none"
         id="path320"
         inkscape:connector-curvature="0" /><path
         d="m 3867.42,2498.79 -67.2,38.8 c -5.4,3.11 -4.73,8.56 1.5,12.16 l 22.02,12.71 c 6.23,3.59 15.66,3.98 21.06,0.87 l 67.21,-38.81 c 5.39,-3.11 4.72,-8.55 -1.51,-12.15 l -22.02,-12.71 c -6.23,-3.6 -15.66,-3.99 -21.06,-0.87"
         style="fill:#916f6f;fill-opacity:1;fill-rule:nonzero;stroke:none"
         id="path322"
         inkscape:connector-curvature="0" /><path
         d="m 3970.29,2439.4 -67.22,38.81 c -5.4,3.12 -4.73,8.56 1.51,12.15 l 22.01,12.72 c 6.23,3.59 15.66,3.98 21.06,0.86 l 67.22,-38.79 c 5.4,-3.12 4.71,-8.57 -1.52,-12.16 l -22.01,-12.72 c -6.23,-3.59 -15.66,-3.98 -21.05,-0.87"
         style="fill:#5f92d3;fill-opacity:1;fill-rule:nonzero;stroke:none"
         id="path324"
         inkscape:connector-curvature="0" /><path
         d="m 4073.14,2380.02 -67.22,38.81 c -5.4,3.11 -4.72,8.55 1.51,12.16 l 22.02,12.7 c 6.23,3.6 15.66,3.99 21.05,0.88 l 67.22,-38.81 c 5.4,-3.11 4.71,-8.56 -1.52,-12.16 l -22.01,-12.71 c -6.23,-3.6 -15.66,-3.99 -21.05,-0.87"
         style="fill:#5f92d3;fill-opacity:1;fill-rule:nonzero;stroke:none"
         id="path326"
         inkscape:connector-curvature="0" /><path
         d="m 4175.99,2320.63 -67.22,38.81 c -5.39,3.12 -4.71,8.56 1.52,12.16 l 22.01,12.72 c 6.24,3.59 15.66,3.98 21.06,0.86 l 67.21,-38.8 c 5.4,-3.12 4.73,-8.56 -1.51,-12.16 l -22.02,-12.71 c -6.23,-3.6 -15.65,-3.99 -21.05,-0.88"
         style="fill:#5f92d3;fill-opacity:1;fill-rule:nonzero;stroke:none"
         id="path328"
         inkscape:connector-curvature="0" /><path
         d="m 4750.21,1989.11 -67.22,38.81 c -5.4,3.11 -4.72,8.55 1.51,12.16 l 22.02,12.71 c 6.23,3.6 15.66,3.99 21.05,0.87 l 67.22,-38.81 c 5.4,-3.11 4.71,-8.55 -1.52,-12.16 l -22.01,-12.7 c -6.23,-3.6 -15.66,-3.99 -21.05,-0.88"
         style="fill:#916f6f;fill-opacity:1;fill-rule:nonzero;stroke:none"
         id="path330"
         inkscape:connector-curvature="0" /><path
         d="m 4853.06,1929.74 -67.22,38.79 c -5.4,3.12 -4.71,8.57 1.52,12.16 l 22.01,12.72 c 6.23,3.59 15.66,3.98 21.05,0.87 l 67.22,-38.81 c 5.4,-3.12 4.73,-8.56 -1.51,-12.15 l -22.02,-12.72 c -6.23,-3.6 -15.65,-3.99 -21.05,-0.86"
         style="fill:#916f6f;fill-opacity:1;fill-rule:nonzero;stroke:none"
         id="path332"
         inkscape:connector-curvature="0" /><path
         d="m 4955.91,1870.35 -67.22,38.81 c -5.39,3.11 -4.71,8.55 1.52,12.15 l 22.02,12.71 c 6.23,3.6 15.65,3.99 21.05,0.87 l 67.21,-38.8 c 5.4,-3.12 4.73,-8.56 -1.5,-12.16 l -22.02,-12.71 c -6.24,-3.59 -15.66,-3.98 -21.06,-0.87"
         style="fill:#916f6f;fill-opacity:1;fill-rule:nonzero;stroke:none"
         id="path334"
         inkscape:connector-curvature="0" /><path
         d="m 5058.76,1810.97 -67.2,38.8 c -5.41,3.12 -4.73,8.56 1.5,12.16 l 22.02,12.71 c 6.23,3.6 15.65,3.99 21.06,0.88 l 67.21,-38.81 c 5.39,-3.12 4.72,-8.57 -1.51,-12.16 l -22.02,-12.71 c -6.23,-3.6 -15.66,-3.99 -21.06,-0.87"
         style="fill:#916f6f;fill-opacity:1;fill-rule:nonzero;stroke:none"
         id="path336"
         inkscape:connector-curvature="0" /><path
         d="m 4040.09,2276.46 -67.22,38.81 c -5.4,3.12 -4.71,8.56 1.52,12.15 l 66.59,38.46 c 6.24,3.59 15.66,3.98 21.06,0.87 l 67.21,-38.81 c 5.4,-3.12 4.73,-8.56 -1.5,-12.15 l -66.6,-38.46 c -6.24,-3.59 -15.67,-3.98 -21.06,-0.87"
         style="fill:#916f6f;fill-opacity:1;fill-rule:nonzero;stroke:none"
         id="path338"
         inkscape:connector-curvature="0" /><path
         d="m 4143.89,2216.53 -67.22,38.81 c -5.4,3.12 -4.71,8.56 1.52,12.16 l 66.6,38.45 c 6.23,3.59 15.65,3.98 21.05,0.87 l 67.22,-38.8 c 5.39,-3.12 4.72,-8.57 -1.51,-12.16 l -66.61,-38.46 c -6.23,-3.59 -15.65,-3.98 -21.05,-0.87"
         style="fill:#916f6f;fill-opacity:1;fill-rule:nonzero;stroke:none"
         id="path340"
         inkscape:connector-curvature="0" /><path
         d="m 4247.69,2156.6 -67.22,38.81 c -5.39,3.11 -4.72,8.55 1.51,12.16 l 66.61,38.45 c 6.23,3.6 15.65,3.99 21.05,0.87 l 67.22,-38.8 c 5.39,-3.12 4.71,-8.57 -1.52,-12.16 l -66.6,-38.45 c -6.23,-3.6 -15.65,-3.99 -21.05,-0.88"
         style="fill:#916f6f;fill-opacity:1;fill-rule:nonzero;stroke:none"
         id="path342"
         inkscape:connector-curvature="0" /><path
         d="m 4351.49,2096.68 -67.22,38.8 c -5.39,3.11 -4.72,8.56 1.51,12.16 l 66.61,38.45 c 6.23,3.6 15.65,3.99 21.05,0.87 l 67.22,-38.81 c 5.39,-3.11 4.71,-8.55 -1.52,-12.15 l -66.6,-38.45 c -6.23,-3.6 -15.65,-3.99 -21.05,-0.87"
         style="fill:#916f6f;fill-opacity:1;fill-rule:nonzero;stroke:none"
         id="path344"
         inkscape:connector-curvature="0" /><path
         d="m 4455.29,2036.75 -67.21,38.81 c -5.4,3.11 -4.73,8.55 1.5,12.14 l 66.6,38.46 c 6.23,3.6 15.67,3.99 21.06,0.87 l 67.22,-38.81 c 5.4,-3.11 4.71,-8.55 -1.52,-12.15 l -66.6,-38.45 c -6.23,-3.6 -15.65,-3.99 -21.05,-0.87"
         style="fill:#916f6f;fill-opacity:1;fill-rule:nonzero;stroke:none"
         id="path346"
         inkscape:connector-curvature="0" /><path
         d="m 4559.09,1976.82 -67.21,38.8 c -5.4,3.12 -4.73,8.56 1.51,12.16 l 66.59,38.45 c 6.23,3.59 15.67,3.98 21.06,0.87 l 67.21,-38.8 c 5.4,-3.12 4.72,-8.56 -1.51,-12.16 l -66.59,-38.46 c -6.24,-3.59 -15.67,-3.98 -21.06,-0.86"
         style="fill:#916f6f;fill-opacity:1;fill-rule:nonzero;stroke:none"
         id="path348"
         inkscape:connector-curvature="0" /><path
         d="m 4662.89,1916.88 -67.21,38.81 c -5.4,3.12 -4.72,8.57 1.51,12.16 l 66.59,38.45 c 6.24,3.6 15.67,3.99 21.06,0.88 l 67.21,-38.81 c 5.4,-3.12 4.73,-8.56 -1.51,-12.16 l -66.59,-38.45 c -6.23,-3.6 -15.67,-3.99 -21.06,-0.88"
         style="fill:#916f6f;fill-opacity:1;fill-rule:nonzero;stroke:none"
         id="path350"
         inkscape:connector-curvature="0" /><path
         d="m 4766.69,1856.96 -67.21,38.8 c -5.41,3.12 -4.72,8.57 1.51,12.16 l 66.6,38.46 c 6.23,3.59 15.65,3.98 21.06,0.87 l 67.2,-38.81 c 5.4,-3.12 4.73,-8.56 -1.5,-12.16 l -66.6,-38.45 c -6.23,-3.59 -15.67,-3.98 -21.06,-0.87"
         style="fill:#916f6f;fill-opacity:1;fill-rule:nonzero;stroke:none"
         id="path352"
         inkscape:connector-curvature="0" /><path
         d="m 4870.49,1797.03 -67.22,38.81 c -5.39,3.11 -4.71,8.55 1.52,12.15 l 66.6,38.45 c 6.23,3.6 15.65,3.99 21.05,0.87 l 67.22,-38.8 c 5.39,-3.12 4.72,-8.56 -1.51,-12.15 l -66.6,-38.46 c -6.24,-3.59 -15.66,-3.98 -21.06,-0.87"
         style="fill:#916f6f;fill-opacity:1;fill-rule:nonzero;stroke:none"
         id="path354"
         inkscape:connector-curvature="0" /><path
         d="m 3446.64,2269.06 -197.95,114.29 c -5.4,3.11 -4.72,8.56 1.51,12.16 l 66.6,38.45 c 6.23,3.6 15.65,3.99 21.05,0.87 l 197.96,-114.28 c 5.39,-3.12 4.72,-8.57 -1.51,-12.16 l -66.6,-38.45 c -6.23,-3.6 -15.66,-3.99 -21.06,-0.88"
         style="fill:#916f6f;fill-opacity:1;fill-rule:nonzero;stroke:none"
         id="path356"
         inkscape:connector-curvature="0" /><path
         d="m 4721.86,1532.82 -197.96,114.29 c -5.39,3.11 -4.72,8.55 1.51,12.16 l 66.6,38.44 c 6.23,3.61 15.66,4 21.06,0.88 l 197.95,-114.29 c 5.4,-3.12 4.72,-8.56 -1.51,-12.15 l -66.6,-38.46 c -6.23,-3.59 -15.65,-3.98 -21.05,-0.87"
         style="fill:#916f6f;fill-opacity:1;fill-rule:nonzero;stroke:none"
         id="path358"
         inkscape:connector-curvature="0" /><path
         d="m 4306.74,1640.11 -67.21,38.81 c -5.4,3.11 -4.72,8.55 1.51,12.15 l 79.34,45.8 c 6.23,3.61 15.66,4 21.06,0.87 l 67.21,-38.8 c 5.4,-3.11 4.72,-8.56 -1.51,-12.15 l -79.34,-45.81 c -6.24,-3.6 -15.66,-3.99 -21.06,-0.87"
         style="fill:#916f6f;fill-opacity:1;fill-rule:nonzero;stroke:none"
         id="path360"
         inkscape:connector-curvature="0" /><path
         d="m 3552.94,2075.31 -107.49,62.06 c -5.4,3.13 -4.72,8.57 1.51,12.16 l 79.34,45.81 c 6.23,3.59 15.66,3.99 21.06,0.87 l 107.49,-62.06 c 5.4,-3.12 4.72,-8.56 -1.52,-12.16 l -79.33,-45.8 c -6.23,-3.6 -15.66,-3.99 -21.06,-0.88"
         style="fill:#916f6f;fill-opacity:1;fill-rule:nonzero;stroke:none"
         id="path362"
         inkscape:connector-curvature="0" /><path
         d="m 4206.73,1697.85 -107.49,62.06 c -5.4,3.12 -4.73,8.56 1.5,12.16 l 79.34,45.8 c 6.24,3.6 15.66,3.99 21.06,0.88 l 107.5,-62.06 c 5.4,-3.13 4.71,-8.57 -1.52,-12.16 l -79.33,-45.81 c -6.23,-3.59 -15.66,-3.98 -21.06,-0.87"
         style="fill:#916f6f;fill-opacity:1;fill-rule:nonzero;stroke:none"
         id="path364"
         inkscape:connector-curvature="0" /><path
         d="m 3702.71,1988.85 -107.5,62.06 c -5.39,3.12 -4.72,8.56 1.51,12.16 l 79.34,45.81 c 6.23,3.59 15.66,3.98 21.05,0.87 l 107.5,-62.07 c 5.39,-3.11 4.72,-8.56 -1.51,-12.15 l -79.34,-45.8 c -6.23,-3.61 -15.66,-4 -21.05,-0.88"
         style="fill:#916f6f;fill-opacity:1;fill-rule:nonzero;stroke:none"
         id="path366"
         inkscape:connector-curvature="0" /><path
         d="m 3697.84,2109.33 467.37,-269.84 c 5.79,-3.34 5.79,-8.77 0,-12.12 l -80.91,-46.71 c -5.8,-3.35 -15.21,-3.35 -21,0 l -467.36,269.83 101.9,58.84"
         style="fill:#916f6f;fill-opacity:1;fill-rule:nonzero;stroke:none"
         id="path368"
         inkscape:connector-curvature="0" /><path
         d="m 4596.85,1531.44 74.87,-43.22 c 4.43,-2.55 3.87,-7.01 -1.24,-9.96 l -32.45,-18.74 c -5.11,-2.95 -12.84,-3.27 -17.27,-0.71 l -74.86,43.22 c -4.42,2.56 -3.87,7.01 1.24,9.96 l 32.45,18.74 c 5.11,2.95 12.83,3.27 17.26,0.71"
         style="fill:#916f6f;fill-opacity:1;fill-rule:nonzero;stroke:none"
         id="path370"
         inkscape:connector-curvature="0" /><path
         d="m 4492.19,1591.87 74.87,-43.22 c 4.43,-2.56 3.87,-7.02 -1.24,-9.97 l -32.46,-18.73 c -5.11,-2.95 -12.83,-3.27 -17.25,-0.72 l -74.88,43.23 c -4.42,2.55 -3.86,7.01 1.24,9.96 l 32.46,18.74 c 5.11,2.95 12.84,3.27 17.26,0.71"
         style="fill:#916f6f;fill-opacity:1;fill-rule:nonzero;stroke:none"
         id="path372"
         inkscape:connector-curvature="0" /><path
         d="m 4388.39,1651.81 74.87,-43.24 c 4.42,-2.55 3.87,-7.01 -1.24,-9.96 l -32.46,-18.74 c -5.1,-2.95 -12.83,-3.26 -17.25,-0.71 l -74.88,43.23 c -4.42,2.55 -3.86,7.01 1.24,9.96 l 32.46,18.74 c 5.11,2.95 12.84,3.26 17.26,0.72"
         style="fill:#916f6f;fill-opacity:1;fill-rule:nonzero;stroke:none"
         id="path374"
         inkscape:connector-curvature="0" /><path
         d="m 4549.51,1624.97 74.87,-43.22 c 4.42,-2.56 3.86,-7.02 -1.24,-9.97 l -32.45,-18.74 c -5.11,-2.94 -12.84,-3.27 -17.26,-0.72 l -74.87,43.24 c -4.43,2.54 -3.87,7.01 1.24,9.96 l 32.45,18.74 c 5.11,2.95 12.84,3.26 17.26,0.71"
         style="fill:#916f6f;fill-opacity:1;fill-rule:nonzero;stroke:none"
         id="path376"
         inkscape:connector-curvature="0" /><path
         d="m 4959.53,2794.35 -559.12,322.81 7.2,36.35 559.11,-322.82 -7.19,-36.34"
         style="fill:#d9effb;fill-opacity:1;fill-rule:nonzero;stroke:none"
         id="path378"
         inkscape:connector-curvature="0" /><path
         d="m 4759.28,2733.02 -390.29,225.33 7.19,36.35 390.3,-225.34 -7.2,-36.34"
         style="fill:#d9effb;fill-opacity:1;fill-rule:nonzero;stroke:none"
         id="path380"
         inkscape:connector-curvature="0" /><path
         d="m 4722.36,2842.81 -337.66,194.94 7.2,36.35 337.64,-194.94 -7.18,-36.35"
         style="fill:#ffffff;fill-opacity:1;fill-rule:nonzero;stroke:none"
         id="path382"
         inkscape:connector-curvature="0" /><path
         d="m 4943.82,2714.94 -168.83,97.47 7.2,36.35 168.83,-97.47 -7.2,-36.35"
         style="fill:#ee1696;fill-opacity:1;fill-rule:nonzero;stroke:none"
         id="path384"
         inkscape:connector-curvature="0" /><path
         d="m 4340.87,3434.29 -168.83,97.47 7.2,36.35 168.82,-97.48 -7.19,-36.34"
         style="fill:#ffb380;fill-opacity:1;fill-rule:nonzero;stroke:none"
         id="path386"
         inkscape:connector-curvature="0" /><path
         d="m 4322.55,3349.81 -168.83,97.47 7.2,36.35 168.82,-97.47 -7.19,-36.35"
         style="fill:#ffffff;fill-opacity:1;fill-rule:nonzero;stroke:none"
         id="path388"
         inkscape:connector-curvature="0" /><path
         d="m 5151.17,2178.13 -168.82,97.48 7.18,36.34 168.83,-97.47 -7.19,-36.35"
         style="fill:#ffb380;fill-opacity:1;fill-rule:nonzero;stroke:none"
         id="path390"
         inkscape:connector-curvature="0" /><path
         d="m 4285.91,3180.87 -168.82,97.47 7.19,36.35 168.83,-97.47 -7.2,-36.35"
         style="fill:#d9effb;fill-opacity:1;fill-rule:nonzero;stroke:none"
         id="path392"
         inkscape:connector-curvature="0" /><path
         d="m 4650.69,3154.7 c -5.38,-11.74 -18.97,-15.92 -30.36,-9.35 -11.38,6.57 -16.25,21.41 -10.86,33.15 5.37,11.73 18.96,15.91 30.35,9.34 11.38,-6.57 16.25,-21.41 10.87,-33.14"
         style="fill:#ee1696;fill-opacity:1;fill-rule:nonzero;stroke:none"
         id="path394"
         inkscape:connector-curvature="0" /><path
         d="m 4723.4,3112.71 c -5.38,-11.73 -18.96,-15.92 -30.35,-9.35 -11.39,6.57 -16.25,21.41 -10.87,33.15 5.38,11.74 18.97,15.92 30.35,9.35 11.39,-6.57 16.25,-21.42 10.87,-33.15"
         style="fill:#ffffff;fill-opacity:1;fill-rule:nonzero;stroke:none"
         id="path396"
         inkscape:connector-curvature="0" /><path
         d="m 4796.12,3070.73 c -5.38,-11.74 -18.97,-15.93 -30.36,-9.35 -11.37,6.57 -16.25,21.41 -10.86,33.15 5.38,11.74 18.97,15.92 30.35,9.35 11.38,-6.58 16.25,-21.42 10.87,-33.15"
         style="fill:#d9effb;fill-opacity:1;fill-rule:nonzero;stroke:none"
         id="path398"
         inkscape:connector-curvature="0" /><path
         d="m 4868.84,3028.74 c -5.38,-11.73 -18.97,-15.92 -30.36,-9.35 -11.38,6.58 -16.25,21.42 -10.87,33.16 5.38,11.73 18.97,15.92 30.35,9.34 11.39,-6.57 16.26,-21.41 10.88,-33.15"
         style="fill:#ee1696;fill-opacity:1;fill-rule:nonzero;stroke:none"
         id="path400"
         inkscape:connector-curvature="0" /><path
         d="m 3660.15,1515.73 -463.48,267.59 c -13.48,7.79 -11.79,21.4 3.78,30.39 l 279.7,161.48 c 15.58,9 39.14,9.98 52.64,2.18 l 463.47,-267.59 c 13.49,-7.79 11.8,-21.39 -3.78,-30.39 l -279.69,-161.47 c -15.58,-9 -39.14,-9.98 -52.64,-2.19"
         style="fill:#ffffff;fill-opacity:1;fill-rule:nonzero;stroke:none"
         id="path402"
         inkscape:connector-curvature="0" /><g
         id="g404"
         style="fill:#c87137"><g
           id="g406"
           clip-path="url(#clipPath410)"
           style="fill:#c87137"><path
             d="m 4640.06,3439.78 c -1.79,2.53 -4.46,4.91 -8.03,6.97 l -110.12,63.58 c -7.17,4.13 -16.53,6.19 -25.9,6.19 -8.22,0 -16.45,-1.58 -23.21,-4.72 l -18.39,-10.56 -6.63,3.93 24.08,13.9 c 7.2,4.16 16.66,6.23 26.11,6.23 9.46,0 18.92,-2.07 26.11,-6.23 l 110.14,-63.58 c 4.97,-2.87 8.18,-6.37 9.72,-10.05 2.66,6.37 0.22,13.32 -7.39,18.62 9.96,-6.93 11.13,-16.69 3.51,-24.28 m -3.57,24.32 c -0.02,0.02 -0.04,0.03 -0.06,0.04 0.02,-0.01 0.04,-0.02 0.06,-0.04 m -0.18,0.13 c -0.01,0 -0.01,0.01 -0.02,0.01 0,0 0.01,-0.01 0.02,-0.01 m -0.15,0.1 c -0.01,0 -0.01,0 -0.01,0.01 0,-0.01 0,-0.01 0.01,-0.01 m -1.76,1.1 c -0.01,0.01 -0.01,0.01 -0.02,0.01 0.01,0 0.01,0 0.02,-0.01"
             style="fill:#c87137;fill-opacity:1;fill-rule:nonzero;stroke:none"
             id="path412"
             inkscape:connector-curvature="0" /><path
             d="m 4657.18,3381.05 -17.81,10.55 26.64,15.38 c 18.13,10.47 25.93,24.67 23.46,38.36 0.28,1.5 0.44,3 0.47,4.5 v -49.88 c -0.12,-0.07 -0.24,-0.13 -0.36,-0.2 l -32.4,-18.71 m -26.39,15.65 v 0 l 35.22,20.33 c 0.06,0.04 0.12,0.07 0.18,0.11 -0.06,-0.04 -0.12,-0.07 -0.18,-0.11 l -35.22,-20.33 m 35.42,20.45 c 0.05,0.03 0.11,0.06 0.16,0.09 -0.05,-0.03 -0.1,-0.06 -0.16,-0.09 m 0.18,0.1 c 0.06,0.04 0.12,0.07 0.17,0.1 -0.05,-0.03 -0.11,-0.06 -0.17,-0.1 m 0.18,0.11 c 0.43,0.25 0.85,0.51 1.27,0.76 -0.42,-0.25 -0.84,-0.51 -1.27,-0.76 m 1.27,0.76 c 0.18,0.11 0.36,0.22 0.53,0.33 -0.17,-0.11 -0.35,-0.22 -0.53,-0.33 m 0.56,0.35 c 0.05,0.03 0.09,0.06 0.14,0.09 -0.05,-0.03 -0.09,-0.06 -0.14,-0.09 m 0.21,0.14 c 0.03,0.01 0.06,0.03 0.08,0.04 -0.03,-0.01 -0.05,-0.03 -0.08,-0.04 m 0.19,0.11 c 0.01,0.01 0.02,0.02 0.04,0.03 -0.02,-0.01 -0.03,-0.02 -0.04,-0.03"
             style="fill:#c87137;fill-opacity:1;fill-rule:nonzero;stroke:none"
             id="path414"
             inkscape:connector-curvature="0" /><path
             d="m 4599.41,3415.29 -145,85.95 18.39,10.56 c 6.76,3.14 14.99,4.72 23.21,4.72 9.37,0 18.73,-2.06 25.9,-6.19 l 110.12,-63.58 c 3.57,-2.06 6.24,-4.44 8.03,-6.97 -1.57,-1.57 -3.52,-3.05 -5.84,-4.39 l -34.81,-20.1"
             style="fill:#c87137;fill-opacity:1;fill-rule:nonzero;stroke:none"
             id="path416"
             inkscape:connector-curvature="0" /><path
             d="m 4630.79,3396.7 -31.38,18.59 34.81,20.1 c 2.32,1.34 4.27,2.82 5.84,4.39 7.62,7.59 6.45,17.35 -3.51,24.28 -0.02,0.01 -0.04,0.03 -0.06,0.04 -0.02,0.02 -0.04,0.03 -0.06,0.04 -0.04,0.03 -0.08,0.06 -0.12,0.09 -0.01,0 -0.02,0.01 -0.02,0.01 -0.04,0.03 -0.09,0.06 -0.13,0.09 -0.01,0 -0.01,0 -0.01,0.01 -0.56,0.37 -1.14,0.74 -1.75,1.09 -0.01,0.01 -0.01,0.01 -0.02,0.01 -0.05,0.03 -0.11,0.07 -0.16,0.1 v 0 l -110.14,63.58 c -7.19,4.16 -16.65,6.24 -26.11,6.24 -9.45,0 -18.91,-2.08 -26.11,-6.24 l -32.67,-18.86 -31.37,18.6 32.25,18.62 c 15.97,9.22 36.94,13.82 57.91,13.82 20.96,0 41.93,-4.6 57.9,-13.82 l 110.13,-63.58 c 16.23,-9.38 24.21,-21.75 23.93,-34.06 -0.03,-1.5 -0.19,-3 -0.47,-4.5 0,0.03 -0.01,0.07 -0.01,0.1 -1.77,-9.65 -8.63,-19.04 -20.62,-26.69 -0.02,-0.01 -0.03,-0.02 -0.04,-0.03 -0.04,-0.02 -0.07,-0.04 -0.11,-0.07 -0.02,-0.01 -0.05,-0.03 -0.08,-0.04 -0.02,-0.02 -0.05,-0.04 -0.07,-0.05 -0.05,-0.03 -0.09,-0.06 -0.14,-0.09 -0.01,0 -0.02,-0.01 -0.03,-0.02 -0.17,-0.11 -0.35,-0.22 -0.53,-0.33 v 0 c -0.42,-0.25 -0.84,-0.51 -1.27,-0.76 0,0 0,0 -0.01,-0.01 -0.05,-0.03 -0.11,-0.06 -0.17,-0.1 0,0 -0.01,0 -0.02,-0.01 -0.05,-0.03 -0.11,-0.06 -0.16,-0.09 -0.01,-0.01 -0.01,-0.01 -0.02,-0.01 -0.06,-0.04 -0.12,-0.07 -0.18,-0.11 l -35.22,-20.33"
             style="fill:#c87137;fill-opacity:1;fill-rule:nonzero;stroke:none"
             id="path418"
             inkscape:connector-curvature="0" /><path
             d="m 4643.94,3445.44 c -1.54,3.68 -4.75,7.18 -9.72,10.05 l -110.14,63.58 c -7.19,4.16 -16.65,6.23 -26.11,6.23 -9.45,0 -18.91,-2.07 -26.11,-6.23 l -24.08,-13.9 -8.59,5.09 32.67,18.86 c 7.2,4.16 16.66,6.24 26.11,6.24 9.46,0 18.92,-2.08 26.11,-6.24 l 110.14,-63.58 v 0 c 0.05,-0.03 0.11,-0.07 0.16,-0.1 0.01,0 0.01,0 0.02,-0.01 0.61,-0.35 1.19,-0.72 1.75,-1.09 0,-0.01 0,-0.01 0.01,-0.01 0.04,-0.03 0.09,-0.06 0.13,-0.09 0.01,0 0.01,-0.01 0.02,-0.01 0.04,-0.03 0.08,-0.06 0.12,-0.09 0.02,-0.01 0.04,-0.02 0.06,-0.04 0.02,-0.01 0.04,-0.03 0.06,-0.04 7.61,-5.3 10.05,-12.25 7.39,-18.62"
             style="fill:#c87137;fill-opacity:1;fill-rule:nonzero;stroke:none"
             id="path420"
             inkscape:connector-curvature="0" /><path
             d="m 4639.37,3391.6 -8.58,5.1 35.22,20.33 c 0.06,0.04 0.12,0.07 0.18,0.11 0.01,0 0.01,0 0.02,0.01 0.06,0.03 0.11,0.06 0.16,0.09 0.01,0.01 0.02,0.01 0.02,0.01 0.06,0.04 0.12,0.07 0.17,0.1 0.01,0.01 0.01,0.01 0.01,0.01 0.43,0.25 0.85,0.51 1.27,0.76 v 0 c 0.18,0.11 0.36,0.22 0.53,0.33 0.01,0.01 0.02,0.02 0.03,0.02 0.05,0.03 0.09,0.06 0.14,0.09 0.02,0.01 0.05,0.03 0.07,0.05 0.03,0.01 0.05,0.03 0.08,0.04 0.04,0.03 0.07,0.05 0.11,0.07 0.01,0.01 0.02,0.02 0.04,0.03 11.99,7.65 18.85,17.04 20.62,26.69 0,-0.03 0.01,-0.07 0.01,-0.1 2.47,-13.69 -5.33,-27.89 -23.46,-38.36 l -26.64,-15.38"
             style="fill:#c87137;fill-opacity:1;fill-rule:nonzero;stroke:none"
             id="path422"
             inkscape:connector-curvature="0" /><path
             d="m 4889.57,3292.06 c -1.79,2.53 -4.46,4.91 -8.03,6.97 l -110.12,63.59 c -7.16,4.12 -16.52,6.17 -25.89,6.17 -8.22,0 -16.45,-1.57 -23.22,-4.71 l -18.54,-10.65 -6.63,3.93 24.23,13.99 c 7.2,4.16 16.66,6.24 26.12,6.24 9.46,0 18.91,-2.08 26.11,-6.23 l 110.13,-63.59 c 4.97,-2.87 8.19,-6.36 9.72,-10.06 2.84,6.8 -0.12,14.24 -8.95,19.65 11.38,-6.98 13.08,-17.32 5.07,-25.3 m -5.1,25.32 c -0.05,0.03 -0.09,0.06 -0.14,0.09 0.05,-0.03 0.09,-0.06 0.14,-0.09 m -0.2,0.13 c -0.03,0.01 -0.05,0.02 -0.07,0.04 0.02,-0.02 0.04,-0.03 0.07,-0.04 m -0.17,0.09 c -0.01,0.01 -0.03,0.02 -0.05,0.03 0.02,-0.01 0.04,-0.02 0.05,-0.03 m -0.18,0.11 c -0.01,0.01 -0.03,0.02 -0.04,0.03 0.01,-0.01 0.03,-0.02 0.04,-0.03"
             style="fill:#c87137;fill-opacity:1;fill-rule:nonzero;stroke:none"
             id="path424"
             inkscape:connector-curvature="0" /><path
             d="m 4918.61,3226.09 -29.88,17.71 26.79,15.47 c 18.13,10.46 25.93,24.66 23.46,38.35 0.26,1.38 0.42,2.77 0.47,4.15 v -63.65 l -20.84,-12.03 m -38.47,22.8 v 0 l 35.38,20.43 c 0.05,0.03 0.11,0.06 0.16,0.09 -0.05,-0.03 -0.11,-0.06 -0.16,-0.09 l -35.38,-20.43 m 35.69,20.61 c 0.01,0 0.01,0 0.01,0 h -0.01"
             style="fill:#c87137;fill-opacity:1;fill-rule:nonzero;stroke:none"
             id="path426"
             inkscape:connector-curvature="0" /><path
             d="m 4848.77,3267.49 -145,85.94 18.54,10.65 c 6.77,3.14 15,4.71 23.22,4.71 9.37,0 18.73,-2.05 25.89,-6.17 l 110.12,-63.59 c 3.57,-2.06 6.24,-4.44 8.03,-6.97 -1.57,-1.57 -3.52,-3.05 -5.85,-4.39 l -34.95,-20.18"
             style="fill:#c87137;fill-opacity:1;fill-rule:nonzero;stroke:none"
             id="path428"
             inkscape:connector-curvature="0" /><path
             d="m 4880.14,3248.89 -31.37,18.6 34.95,20.18 c 2.33,1.34 4.28,2.82 5.85,4.39 8.01,7.98 6.31,18.32 -5.07,25.3 -0.01,0.01 -0.02,0.02 -0.03,0.02 -0.05,0.03 -0.09,0.06 -0.14,0.09 -0.02,0.01 -0.04,0.02 -0.06,0.04 -0.03,0.01 -0.05,0.02 -0.07,0.04 -0.03,0.02 -0.07,0.04 -0.1,0.05 -0.01,0.01 -0.03,0.02 -0.05,0.03 -0.04,0.03 -0.08,0.06 -0.13,0.08 -0.01,0.01 -0.03,0.02 -0.04,0.03 -0.05,0.02 -0.1,0.05 -0.15,0.08 v 0 l -110.13,63.59 c -7.2,4.15 -16.66,6.23 -26.11,6.23 -9.46,0 -18.92,-2.08 -26.12,-6.23 l -32.82,-18.95 -31.37,18.59 32.4,18.71 c 0.12,0.07 0.24,0.13 0.36,0.2 15.92,9.08 36.74,13.62 57.55,13.62 20.97,0 41.94,-4.61 57.9,-13.82 l 110.13,-63.59 c 16.39,-9.46 24.37,-21.97 23.93,-34.4 -0.05,-1.38 -0.21,-2.77 -0.47,-4.15 0,0.03 -0.01,0.06 -0.01,0.09 -1.89,-10.3 -9.58,-20.3 -23.13,-28.21 0,0 0,0 -0.01,0 -0.05,-0.03 -0.1,-0.06 -0.15,-0.09 -0.05,-0.03 -0.11,-0.06 -0.16,-0.09 l -35.38,-20.43"
             style="fill:#c87137;fill-opacity:1;fill-rule:nonzero;stroke:none"
             id="path430"
             inkscape:connector-curvature="0" /><path
             d="m 4893.45,3297.71 c -1.53,3.7 -4.75,7.19 -9.72,10.06 l -110.13,63.59 c -7.2,4.15 -16.65,6.23 -26.11,6.23 -9.46,0 -18.92,-2.08 -26.12,-6.24 l -24.23,-13.99 -8.59,5.1 32.82,18.95 c 7.2,4.15 16.66,6.23 26.12,6.23 9.45,0 18.91,-2.08 26.11,-6.23 l 110.13,-63.59 v 0 c 0.05,-0.03 0.1,-0.06 0.15,-0.08 0.01,-0.01 0.03,-0.02 0.04,-0.03 0.05,-0.02 0.09,-0.05 0.13,-0.08 0.02,-0.01 0.04,-0.02 0.05,-0.03 0.03,-0.01 0.07,-0.03 0.1,-0.05 0.02,-0.02 0.04,-0.03 0.07,-0.04 0.02,-0.02 0.04,-0.03 0.06,-0.04 0.05,-0.03 0.09,-0.06 0.14,-0.09 0.01,0 0.02,-0.01 0.03,-0.02 8.83,-5.41 11.79,-12.85 8.95,-19.65"
             style="fill:#c87137;fill-opacity:1;fill-rule:nonzero;stroke:none"
             id="path432"
             inkscape:connector-curvature="0" /><path
             d="m 4888.73,3243.8 -8.59,5.09 35.38,20.43 c 0.05,0.03 0.11,0.06 0.16,0.09 0.05,0.03 0.1,0.06 0.15,0.09 h 0.01 c 13.55,7.91 21.24,17.91 23.13,28.21 0,-0.03 0.01,-0.06 0.01,-0.09 2.47,-13.69 -5.33,-27.89 -23.46,-38.35 l -26.79,-15.47"
             style="fill:#c87137;fill-opacity:1;fill-rule:nonzero;stroke:none"
             id="path434"
             inkscape:connector-curvature="0" /><path
             d="m 4929.92,2208.71 6.16,25.14 59.57,34.08 18.42,-10.64 -84.15,-48.58 m 119.22,68.83 -18.26,10.54 164.95,94.35 v 0.36 c 0.43,-12.41 -7.55,-24.91 -23.92,-34.37 l -122.77,-70.88"
             style="fill:#c87137;fill-opacity:1;fill-rule:nonzero;stroke:none"
             id="path436"
             inkscape:connector-curvature="0" /><path
             d="m 5014.07,2257.29 -18.42,10.64 35.23,20.15 18.26,-10.54 -35.07,-20.25"
             style="fill:#c87137;fill-opacity:1;fill-rule:nonzero;stroke:none"
             id="path438"
             inkscape:connector-curvature="0" /><path
             d="m 5145.96,3134.18 c -1.79,2.54 -4.47,4.92 -8.03,6.97 l -110.13,63.59 c -7.16,4.13 -16.52,6.18 -25.9,6.18 -8.21,0 -16.44,-1.58 -23.21,-4.71 l -13.47,-7.74 -6.64,3.93 19.18,11.08 c 7.2,4.15 16.66,6.23 26.11,6.23 9.46,0 18.92,-2.08 26.11,-6.23 l 110.14,-63.59 c 4.97,-2.87 8.18,-6.37 9.72,-10.05 2.64,6.33 0.25,13.23 -7.23,18.51 9.81,-6.92 10.93,-16.61 3.35,-24.17 m -3.35,24.17 c -0.06,0.04 -0.11,0.08 -0.16,0.11 0.05,-0.03 0.1,-0.07 0.16,-0.11 m -0.23,0.16 c -0.01,0.01 -0.03,0.02 -0.05,0.04 0.02,-0.02 0.04,-0.03 0.05,-0.04 m -0.17,0.12 c -0.01,0.01 -0.02,0.01 -0.02,0.01 0,0 0.01,0 0.02,-0.01 m -0.15,0.1 c -0.01,0.01 -0.01,0.01 -0.02,0.01 0.01,0 0.01,0 0.02,-0.01 m -1.77,1.11 c 0,0 -0.01,0 -0.01,0.01 0,-0.01 0.01,-0.01 0.01,-0.01"
             style="fill:#c87137;fill-opacity:1;fill-rule:nonzero;stroke:none"
             id="path440"
             inkscape:connector-curvature="0" /><path
             d="m 4936.08,2233.85 85.17,347.73 31.4,18.13 v 110.07 l 92.07,375.91 27.19,15.7 c 18.13,10.47 25.93,24.66 23.46,38.36 0.26,1.39 0.41,2.78 0.46,4.18 v -761.14 -0.36 l -164.95,-94.35 -41.35,23.87 -7.18,-36.34 13.3,-7.68 -59.57,-34.08 m 205.5,860.08 v 0 l 30.33,17.51 c 0.06,0.03 0.12,0.07 0.18,0.1 -0.06,-0.03 -0.12,-0.07 -0.18,-0.1 l -30.33,-17.51 m 30.53,17.62 c 0.05,0.03 0.11,0.07 0.16,0.1 -0.05,-0.03 -0.11,-0.07 -0.16,-0.1 m 0.18,0.11 c 0.06,0.03 0.12,0.07 0.17,0.1 -0.05,-0.03 -0.11,-0.07 -0.17,-0.1 m 0.18,0.1 c 0.43,0.26 0.85,0.51 1.27,0.77 -0.42,-0.26 -0.84,-0.52 -1.27,-0.77 m 1.27,0.77 c 0.18,0.11 0.36,0.22 0.53,0.33 -0.17,-0.11 -0.35,-0.22 -0.53,-0.33 m 0.56,0.34 c 0.04,0.03 0.09,0.06 0.14,0.09 -0.05,-0.03 -0.1,-0.06 -0.14,-0.09 m 0.21,0.14 c 0.03,0.01 0.05,0.03 0.08,0.05 -0.03,-0.02 -0.05,-0.03 -0.08,-0.05 m 0.19,0.12 c 0.01,0.01 0.02,0.01 0.04,0.02 -0.02,-0.01 -0.03,-0.01 -0.04,-0.02"
             style="fill:#c87137;fill-opacity:1;fill-rule:nonzero;stroke:none"
             id="path442"
             inkscape:connector-curvature="0" /><path
             d="m 4995.65,2267.93 -13.3,7.68 7.18,36.34 41.35,-23.87 -35.23,-20.15"
             style="fill:#c87137;fill-opacity:1;fill-rule:nonzero;stroke:none"
             id="path444"
             inkscape:connector-curvature="0" /><path
             d="m 5110.2,3112.53 -144.98,85.94 13.47,7.74 c 6.77,3.13 15,4.71 23.21,4.71 9.38,0 18.74,-2.05 25.9,-6.18 l 110.13,-63.59 c 3.56,-2.05 6.24,-4.43 8.03,-6.97 -1.58,-1.57 -3.53,-3.04 -5.85,-4.39 l -29.91,-17.26"
             style="fill:#c87137;fill-opacity:1;fill-rule:nonzero;stroke:none"
             id="path446"
             inkscape:connector-curvature="0" /><path
             d="m 5141.58,3093.93 -31.38,18.6 29.91,17.26 c 2.32,1.35 4.27,2.82 5.85,4.39 7.58,7.56 6.46,17.25 -3.35,24.17 v 0 c -0.06,0.04 -0.11,0.08 -0.16,0.11 -0.02,0.02 -0.04,0.03 -0.07,0.05 -0.01,0.01 -0.03,0.02 -0.05,0.04 -0.04,0.02 -0.08,0.05 -0.12,0.08 -0.01,0.01 -0.02,0.01 -0.02,0.01 -0.04,0.03 -0.09,0.06 -0.13,0.09 -0.01,0.01 -0.01,0.01 -0.02,0.01 -0.55,0.38 -1.14,0.74 -1.75,1.1 0,0 -0.01,0 -0.01,0.01 -0.05,0.03 -0.11,0.06 -0.16,0.09 v 0 l -110.14,63.58 c -7.19,4.16 -16.65,6.24 -26.11,6.24 -9.45,0 -18.91,-2.08 -26.11,-6.24 l -27.77,-16.03 -31.38,18.6 20.84,12.03 6.52,3.76 c 15.96,9.22 36.93,13.83 57.9,13.83 20.97,0 41.94,-4.61 57.91,-13.83 l 110.13,-63.58 c 16.37,-9.46 24.35,-21.95 23.92,-34.37 -0.05,-1.4 -0.2,-2.79 -0.46,-4.18 -0.01,0.03 -0.01,0.06 -0.02,0.09 -1.77,-9.64 -8.62,-19.04 -20.61,-26.69 -0.02,-0.01 -0.03,-0.01 -0.04,-0.02 -0.04,-0.03 -0.08,-0.05 -0.11,-0.07 -0.03,-0.02 -0.05,-0.04 -0.08,-0.05 -0.02,-0.02 -0.05,-0.03 -0.07,-0.05 -0.05,-0.03 -0.1,-0.06 -0.14,-0.09 -0.01,0 -0.02,-0.01 -0.03,-0.01 -0.17,-0.11 -0.35,-0.22 -0.53,-0.33 v 0 c -0.42,-0.26 -0.84,-0.51 -1.27,-0.77 -0.01,0 -0.01,0 -0.01,0 -0.05,-0.03 -0.11,-0.07 -0.17,-0.1 -0.01,-0.01 -0.01,-0.01 -0.02,-0.01 -0.05,-0.03 -0.11,-0.07 -0.16,-0.1 -0.01,0 -0.01,-0.01 -0.02,-0.01 -0.06,-0.03 -0.12,-0.07 -0.18,-0.1 l -30.33,-17.51"
             style="fill:#c87137;fill-opacity:1;fill-rule:nonzero;stroke:none"
             id="path448"
             inkscape:connector-curvature="0" /><path
             d="m 5021.25,2581.58 31.4,128.2 v -110.07 l -31.4,-18.13"
             style="fill:#c87137;fill-opacity:1;fill-rule:nonzero;stroke:none"
             id="path450"
             inkscape:connector-curvature="0" /><path
             d="m 5149.84,3139.84 c -1.54,3.68 -4.75,7.18 -9.72,10.05 l -110.14,63.59 c -7.19,4.15 -16.65,6.23 -26.11,6.23 -9.45,0 -18.91,-2.08 -26.11,-6.23 l -19.18,-11.08 -8.59,5.09 27.77,16.03 c 7.2,4.16 16.66,6.24 26.11,6.24 9.46,0 18.92,-2.08 26.11,-6.24 l 110.14,-63.58 v 0 c 0.05,-0.03 0.11,-0.06 0.16,-0.09 0,-0.01 0.01,-0.01 0.01,-0.01 0.61,-0.36 1.2,-0.72 1.75,-1.1 0.01,0 0.01,0 0.02,-0.01 0.04,-0.03 0.09,-0.06 0.13,-0.09 0,0 0.01,0 0.02,-0.01 0.04,-0.03 0.08,-0.06 0.12,-0.08 0.02,-0.02 0.04,-0.03 0.05,-0.04 0.03,-0.02 0.05,-0.03 0.07,-0.05 0.05,-0.03 0.1,-0.07 0.16,-0.11 v 0 c 7.48,-5.28 9.87,-12.18 7.23,-18.51"
             style="fill:#c87137;fill-opacity:1;fill-rule:nonzero;stroke:none"
             id="path452"
             inkscape:connector-curvature="0" /><path
             d="m 5144.72,3085.69 1.37,5.57 -4.51,2.67 30.33,17.51 c 0.06,0.03 0.12,0.07 0.18,0.1 0.01,0 0.01,0.01 0.02,0.01 0.05,0.03 0.11,0.07 0.16,0.1 0.01,0 0.01,0 0.02,0.01 0.06,0.03 0.12,0.07 0.17,0.1 0,0 0,0 0.01,0 0.43,0.25 0.85,0.51 1.27,0.77 v 0 c 0.18,0.11 0.36,0.22 0.53,0.33 0.01,0 0.02,0.01 0.03,0.01 0.04,0.03 0.09,0.06 0.14,0.09 0.02,0.02 0.05,0.03 0.07,0.05 0.03,0.02 0.05,0.03 0.08,0.05 0.03,0.02 0.07,0.04 0.11,0.07 0.01,0.01 0.02,0.01 0.04,0.02 11.99,7.65 18.84,17.05 20.61,26.69 0.01,-0.03 0.01,-0.06 0.02,-0.09 2.47,-13.7 -5.33,-27.89 -23.46,-38.36 l -27.19,-15.7"
             style="fill:#c87137;fill-opacity:1;fill-rule:nonzero;stroke:none"
             id="path454"
             inkscape:connector-curvature="0" /></g></g><g
         id="g456"><g
           id="g458"
           clip-path="url(#clipPath462)"><path
             d="m 4666.01,2720.88 c 31.92,-18.44 31.92,-48.43 0,-66.87 l -542.72,-313.33 c -8.78,-5.07 -23.01,-5.07 -31.79,0 -8.77,5.07 -8.77,13.28 0,18.35 l 542.72,313.34 c 14.4,8.31 14.4,21.84 0,30.16 l -52.6,30.36 c 5.85,8.79 11.16,17.94 16.34,27.28 l 68.05,-39.29"
             style="fill:#ffccaa;fill-opacity:1;fill-rule:nonzero;stroke:none"
             id="path464"
             inkscape:connector-curvature="0" /><path
             d="m 3897.36,2471.12 542.71,313.34 c 31.93,18.43 83.88,18.44 115.81,0 l 42.08,-24.29 c -5.18,-9.34 -10.49,-18.49 -16.34,-27.28 l -57.54,33.21 c -14.39,8.32 -37.82,8.32 -52.22,0 l -542.72,-313.33 c -8.78,-5.07 -23,-5.07 -31.78,0 -8.78,5.06 -8.78,13.28 0,18.35"
             style="fill:#ff9955;fill-opacity:1;fill-rule:nonzero;stroke:none"
             id="path466"
             inkscape:connector-curvature="0" /><path
             d="m 3890.82,2461.3 -0.05,763.14 568.74,317.06 79.54,5.24 76.91,-49.83 47.2,-41.07 -554.13,-878.73 -180.92,-106.63 -37.29,-9.18"
             style="fill:#ff9955;fill-opacity:1;fill-rule:nonzero;stroke:none"
             id="path468"
             inkscape:connector-curvature="0" /><path
             d="m 4101.16,2364.91 -170,98.15 v 737.54 l 175.25,-81.46 -5.25,-754.23"
             style="fill:#ff7f2a;fill-opacity:1;fill-rule:nonzero;stroke:none"
             id="path470"
             inkscape:connector-curvature="0" /><path
             d="m 4689.94,3449.93 v -761.9 l -597.06,-341.51 -7.96,3.19 v 763.02 l 605.02,337.2"
             style="fill:#ffccaa;fill-opacity:1;fill-rule:nonzero;stroke:none"
             id="path472"
             inkscape:connector-curvature="0" /><path
             d="m 4354.14,3443.62 118.66,68.18 c 14.49,6.72 35.67,6.29 49.11,-1.47 l 110.12,-63.58 c 8.54,-4.92 11.97,-11.68 10.39,-18.1 l -299.84,-179.17 -240.84,-147.83 -170.58,98.95 422.98,243.02"
             style="fill:#ffffff;fill-opacity:1;fill-rule:nonzero;stroke:none"
             id="path474"
             inkscape:connector-curvature="0" /><path
             d="m 4106.41,3124.71 v -787.78 c -5.42,0.14 -10.77,1.36 -14.91,3.75 -4.32,2.49 -6.49,5.75 -6.56,9.01 l -0.02,0.02 v 0.11 0.06 762.85 l 21.49,11.98"
             style="fill:#ff9955;fill-opacity:1;fill-rule:nonzero;stroke:none"
             id="path476"
             inkscape:connector-curvature="0" /><path
             d="m 3890.77,3214.92 v 9.52 h 3.03 l 0.93,-6.46 -3.96,-3.06"
             style="fill:#ffffff;fill-opacity:1;fill-rule:nonzero;stroke:none"
             id="path478"
             inkscape:connector-curvature="0" /><path
             d="m 4084.93,3102.84 v 9.75 l 2.93,-4.13 z"
             style="fill:#ffffff;fill-opacity:1;fill-rule:nonzero;stroke:none"
             id="path480"
             inkscape:connector-curvature="0" /><path
             d="m 4123.29,3103.7 542.72,313.33 c 31.92,18.44 31.92,48.43 0,66.87 l -110.13,63.58 c -31.93,18.43 -83.88,18.43 -115.81,0 l -542.71,-313.34 c -8.78,-5.07 -8.78,-13.29 0,-18.36 8.78,-5.06 23,-5.06 31.78,0 l 542.72,313.34 c 14.4,8.32 37.83,8.32 52.22,0 l 110.14,-63.58 c 14.4,-8.31 14.4,-21.84 0,-30.15 L 4091.5,3122.05 c -8.77,-5.07 -8.77,-13.29 0,-18.36 8.78,-5.06 23.01,-5.06 31.79,0.01"
             style="fill:#ffccaa;fill-opacity:1;fill-rule:nonzero;stroke:none"
             id="path482"
             inkscape:connector-curvature="0" /><path
             d="m 4264.73,2742.48 282.02,162.82 v 282.72 l -282.02,-162.83 v -282.71"
             style="fill:#ffffff;fill-opacity:1;fill-rule:nonzero;stroke:none"
             id="path484"
             inkscape:connector-curvature="0" /><path
             d="m 3897.36,3215.78 c 8.78,-5.06 23,-5.06 31.78,0 l 542.72,313.34 c 14.4,8.32 37.83,8.32 52.22,0 l 110.14,-63.58 c 9.43,-5.44 12.64,-13.12 9.72,-20.1 -1.54,3.68 -4.75,7.18 -9.72,10.05 l -110.14,63.58 c -14.39,8.31 -37.82,8.31 -52.22,0 l -542.72,-313.34 c -8.78,-5.07 -23,-5.07 -31.78,0 -6.65,3.84 -8.25,9.49 -4.81,14.21 1.1,-1.51 2.68,-2.93 4.81,-4.16"
             style="fill:#ffffff;fill-opacity:1;fill-rule:nonzero;stroke:none"
             id="path486"
             inkscape:connector-curvature="0" /><path
             d="m 4091.5,3103.69 c 8.78,-5.06 23.01,-5.06 31.79,0.01 l 542.72,313.33 c 13.75,7.94 21.54,18.03 23.45,28.41 2.52,-13.72 -5.28,-27.96 -23.45,-38.46 l -542.72,-313.34 c -8.78,-5.07 -23.01,-5.07 -31.79,0 -6.65,3.84 -8.24,9.48 -4.81,14.21 1.1,-1.51 2.69,-2.93 4.81,-4.16"
             style="fill:#ffffff;fill-opacity:1;fill-rule:nonzero;stroke:none"
             id="path488"
             inkscape:connector-curvature="0" /><path
             d="m 4915.52,2573.16 c 31.92,-18.43 31.92,-48.43 0,-66.86 l -542.71,-313.34 c -8.78,-5.07 -23.02,-5.07 -31.8,0 -8.78,5.07 -8.78,13.29 0,18.36 l 542.71,313.33 c 14.41,8.32 14.41,21.84 0.01,30.15 l -52.59,30.37 c 5.84,8.78 11.15,17.93 16.33,27.27 l 68.05,-39.28"
             style="fill:#d45500;fill-opacity:1;fill-rule:nonzero;stroke:none"
             id="path490"
             inkscape:connector-curvature="0" /><path
             d="m 4146.87,2323.4 542.71,313.34 c 31.94,18.44 83.88,18.44 115.81,0 l 42.08,-24.3 c -5.18,-9.34 -10.49,-18.49 -16.33,-27.27 l -57.54,33.22 c -14.4,8.31 -37.83,8.31 -52.23,0 l -542.72,-313.34 c -8.77,-5.07 -23,-5.07 -31.78,0 -8.78,5.07 -8.78,13.29 0,18.35"
             style="fill:#d45500;fill-opacity:1;fill-rule:nonzero;stroke:none"
             id="path492"
             inkscape:connector-curvature="0" /><path
             d="m 4140.33,2313.57 -0.04,763.15 568.74,317.05 79.53,5.24 76.91,-49.81 47.2,-41.09 -554.13,-878.72 -180.92,-106.63 -37.29,-9.19"
             style="fill:#d45500;fill-opacity:1;fill-rule:nonzero;stroke:none"
             id="path494"
             inkscape:connector-curvature="0" /><path
             d="m 4350.68,2217.2 -170,98.14 v 737.54 l 175.24,-81.45 -5.24,-754.23"
             style="fill:#ff9955;fill-opacity:1;fill-rule:nonzero;stroke:none"
             id="path496"
             inkscape:connector-curvature="0" /><path
             d="m 4939.45,3302.21 v -761.9 l -597.05,-341.51 -7.96,3.19 v 763.02 l 605.01,337.2"
             style="fill:#d45500;fill-opacity:1;fill-rule:nonzero;stroke:none"
             id="path498"
             inkscape:connector-curvature="0" /><path
             d="m 4603.65,3295.91 118.66,68.17 c 14.49,6.71 35.67,6.28 49.11,-1.46 l 110.13,-63.59 c 8.52,-4.93 11.96,-11.68 10.39,-18.09 l -299.85,-179.17 -240.84,-147.84 -170.57,98.95 422.97,243.03"
             style="fill:#ffffff;fill-opacity:1;fill-rule:nonzero;stroke:none"
             id="path500"
             inkscape:connector-curvature="0" /><path
             d="m 4355.93,2976.84 v -787.77 c -5.42,0.14 -10.77,1.36 -14.91,3.75 -4.32,2.49 -6.49,5.74 -6.55,9.01 l -0.02,0.02 v 0.12 0.06 762.84 l 21.48,11.97"
             style="fill:#d45500;fill-opacity:1;fill-rule:nonzero;stroke:none"
             id="path502"
             inkscape:connector-curvature="0" /><path
             d="m 4140.29,3067.21 v 9.51 h 3.02 l 0.93,-6.46 -3.95,-3.05"
             style="fill:#ffffff;fill-opacity:1;fill-rule:nonzero;stroke:none"
             id="path504"
             inkscape:connector-curvature="0" /><path
             d="m 4334.45,2955.12 v 9.75 l 2.93,-4.14 z"
             style="fill:#ffffff;fill-opacity:1;fill-rule:nonzero;stroke:none"
             id="path506"
             inkscape:connector-curvature="0" /><path
             d="m 4372.81,2955.98 542.71,313.34 c 31.92,18.42 31.92,48.42 0,66.85 l -110.13,63.59 c -31.93,18.43 -83.87,18.43 -115.81,0 l -542.71,-313.34 c -8.78,-5.07 -8.78,-13.29 0,-18.35 8.78,-5.07 23.01,-5.07 31.78,0 l 542.72,313.34 c 14.4,8.31 37.83,8.31 52.23,0 l 110.13,-63.59 c 14.4,-8.32 14.4,-21.83 -0.01,-30.15 l -542.71,-313.34 c -8.77,-5.07 -8.78,-13.29 0,-18.35 8.78,-5.07 23.02,-5.07 31.8,0"
             style="fill:#d45500;fill-opacity:1;fill-rule:nonzero;stroke:none"
             id="path508"
             inkscape:connector-curvature="0" /><path
             d="m 4514.24,2594.76 282.02,162.82 v 282.72 l -282.02,-162.82 v -282.72"
             style="fill:#ffffff;fill-opacity:1;fill-rule:nonzero;stroke:none"
             id="path510"
             inkscape:connector-curvature="0" /><path
             d="m 4146.87,3068.07 c 8.78,-5.07 23.01,-5.07 31.78,0 l 542.72,313.34 c 14.4,8.31 37.83,8.31 52.23,0 l 110.13,-63.59 c 9.43,-5.45 12.64,-13.11 9.72,-20.11 -1.53,3.7 -4.75,7.19 -9.72,10.06 l -110.13,63.59 c -14.4,8.31 -37.83,8.31 -52.23,-0.01 l -542.72,-313.33 c -8.77,-5.07 -23,-5.07 -31.78,0 -6.65,3.83 -8.24,9.48 -4.81,14.2 1.1,-1.51 2.68,-2.92 4.81,-4.15"
             style="fill:#ffffff;fill-opacity:1;fill-rule:nonzero;stroke:none"
             id="path512"
             inkscape:connector-curvature="0" /><path
             d="m 4341.01,2955.98 c 8.78,-5.07 23.02,-5.07 31.8,0 l 542.71,313.34 c 13.75,7.94 21.54,18.01 23.45,28.39 2.52,-13.72 -5.28,-27.95 -23.45,-38.44 l -542.71,-313.34 c -8.78,-5.07 -23.02,-5.07 -31.8,0 -6.65,3.84 -8.23,9.48 -4.81,14.2 1.1,-1.51 2.69,-2.92 4.81,-4.15"
             style="fill:#ffe6d5;fill-opacity:1;fill-rule:nonzero;stroke:none"
             id="path514"
             inkscape:connector-curvature="0" /><path
             d="m 5171.91,2415.28 c 31.92,-18.43 31.92,-48.43 0,-66.86 l -542.73,-313.33 c -8.77,-5.07 -23.01,-5.07 -31.78,0 -8.78,5.07 -8.78,13.28 0,18.35 l 542.71,313.34 c 14.4,8.31 14.4,21.83 0.01,30.15 l -52.6,30.36 c 5.85,8.79 11.15,17.94 16.34,27.28 l 68.05,-39.29"
             style="fill:#ffccaa;fill-opacity:1;fill-rule:nonzero;stroke:none"
             id="path516"
             inkscape:connector-curvature="0" /><path
             d="m 4403.25,2165.53 542.72,313.34 c 31.92,18.42 83.88,18.43 115.81,0 l 42.08,-24.3 c -5.19,-9.34 -10.49,-18.49 -16.34,-27.28 l -57.54,33.22 c -14.39,8.32 -37.82,8.32 -52.22,0 l -542.72,-313.33 c -8.78,-5.07 -23.01,-5.07 -31.79,0 -8.77,5.06 -8.77,13.28 0,18.35"
             style="fill:#ffccaa;fill-opacity:1;fill-rule:nonzero;stroke:none"
             id="path518"
             inkscape:connector-curvature="0" /><path
             d="m 4396.72,2155.7 -0.05,763.15 568.74,317.05 79.53,5.24 76.92,-49.82 47.2,-41.08 -554.14,-878.73 -180.91,-106.63 -37.29,-9.18"
             style="fill:#ffccaa;fill-opacity:1;fill-rule:nonzero;stroke:none"
             id="path520"
             inkscape:connector-curvature="0" /><path
             d="m 4607.06,2059.32 -170,98.14 v 737.55 l 175.25,-81.47 -5.25,-754.22"
             style="fill:#ff9955;fill-opacity:1;fill-rule:nonzero;stroke:none"
             id="path522"
             inkscape:connector-curvature="0" /><path
             d="m 5195.83,3144.34 v -761.91 l -597.05,-341.5 -7.96,3.18 v 763.03 l 605.01,337.2"
             style="fill:#ffccaa;fill-opacity:1;fill-rule:nonzero;stroke:none"
             id="path524"
             inkscape:connector-curvature="0" /><path
             d="m 4860.03,3138.03 118.66,68.18 c 14.49,6.71 35.68,6.28 49.12,-1.47 l 110.12,-63.59 c 8.53,-4.92 11.97,-11.68 10.39,-18.09 l -299.84,-179.17 -240.84,-147.84 -170.58,98.96 422.97,243.02"
             style="fill:#ffffff;fill-opacity:1;fill-rule:nonzero;stroke:none"
             id="path526"
             inkscape:connector-curvature="0" /><path
             d="m 4612.31,2819.11 v -787.77 c -5.42,0.13 -10.77,1.35 -14.91,3.75 -4.32,2.49 -6.49,5.74 -6.56,9 l -0.02,0.02 v 0.13 0.05 762.85 l 21.49,11.97"
             style="fill:#ffb380;fill-opacity:1;fill-rule:nonzero;stroke:none"
             id="path528"
             inkscape:connector-curvature="0" /><path
             d="m 4396.67,2909.33 v 9.52 h 3.03 l 0.93,-6.47 -3.96,-3.05"
             style="fill:#ffffff;fill-opacity:1;fill-rule:nonzero;stroke:none"
             id="path530"
             inkscape:connector-curvature="0" /><path
             d="m 4590.83,2797.25 v 9.75 l 2.93,-4.14 z"
             style="fill:#ffffff;fill-opacity:1;fill-rule:nonzero;stroke:none"
             id="path532"
             inkscape:connector-curvature="0" /><path
             d="m 4629.18,2798.1 542.73,313.33 c 31.92,18.44 31.92,48.43 0,66.87 l -110.13,63.58 c -31.93,18.43 -83.89,18.43 -115.81,0 l -542.72,-313.34 c -8.77,-5.06 -8.77,-13.29 0,-18.36 8.78,-5.05 23.01,-5.05 31.79,0.01 l 542.72,313.33 c 14.4,8.33 37.83,8.33 52.22,0 l 110.14,-63.58 c 14.39,-8.31 14.39,-21.84 -0.01,-30.15 L 4597.4,2816.45 c -8.78,-5.06 -8.78,-13.29 0,-18.35 8.77,-5.06 23.01,-5.06 31.78,0"
             style="fill:#ffccaa;fill-opacity:1;fill-rule:nonzero;stroke:none"
             id="path534"
             inkscape:connector-curvature="0" /><path
             d="m 4770.63,2436.88 282.02,162.83 v 282.71 L 4770.63,2719.6 v -282.72"
             style="fill:#ffffff;fill-opacity:1;fill-rule:nonzero;stroke:none"
             id="path536"
             inkscape:connector-curvature="0" /><path
             d="m 4403.25,2910.19 c 8.78,-5.06 23.01,-5.06 31.79,0 l 542.72,313.33 c 14.4,8.33 37.83,8.33 52.22,0 l 110.14,-63.58 c 9.42,-5.44 12.64,-13.11 9.72,-20.1 -1.54,3.68 -4.75,7.18 -9.72,10.05 l -110.14,63.59 c -14.39,8.31 -37.82,8.31 -52.22,0 l -542.72,-313.34 c -8.78,-5.07 -23.01,-5.07 -31.79,0 -6.65,3.84 -8.24,9.49 -4.81,14.21 1.1,-1.52 2.69,-2.93 4.81,-4.16"
             style="fill:#ffffff;fill-opacity:1;fill-rule:nonzero;stroke:none"
             id="path538"
             inkscape:connector-curvature="0" /><path
             d="m 4597.4,2798.1 c 8.77,-5.06 23.01,-5.06 31.78,0 l 542.73,313.33 c 13.75,7.94 21.54,18.03 23.44,28.41 2.52,-13.72 -5.27,-27.96 -23.44,-38.45 l -542.73,-313.34 c -8.77,-5.07 -23.01,-5.07 -31.78,0 -6.66,3.84 -8.24,9.49 -4.81,14.21 1.09,-1.52 2.69,-2.93 4.81,-4.16"
             style="fill:#ffffff;fill-opacity:1;fill-rule:nonzero;stroke:none"
             id="path540"
             inkscape:connector-curvature="0" /></g></g><path
         d="m 4362.34,556.891 c -14.06,0 -28.13,3.089 -38.86,9.289 -21.47,12.379 -21.47,32.468 0,44.859 l 1002.41,578.971 c 10.73,6.2 24.79,9.29 38.85,9.29 14.07,0 28.13,-3.09 38.87,-9.29 21.45,-12.39 21.46,-32.48 0,-44.86 L 4401.19,566.172 c -10.73,-6.192 -24.79,-9.281 -38.85,-9.281"
         style="fill:#ffb380;fill-opacity:1;fill-rule:nonzero;stroke:none"
         id="path542"
         inkscape:connector-curvature="0" /><path
         d="m 5574.91,1503.63 v 0 c -0.96,1.64 -2.86,2.47 -4.71,2.07 l -60.64,-13.15 23.88,-40.63 40.99,46.6 c 1.25,1.41 1.44,3.48 0.48,5.11"
         style="fill:#ffcead;fill-opacity:1;fill-rule:nonzero;stroke:none"
         id="path544"
         inkscape:connector-curvature="0" /><path
         d="m 5551,1473.67 c -0.07,8.74 -6.29,19.34 -13.91,23.64 -3.51,2.01 -6.68,2.24 -9.09,1.13 -70.07,0.57 -138.98,-17.87 -199.39,-53.38 l -4.39,-2.58 75.32,-128.13 22.24,14.75 c 47.07,31.21 86.75,72.34 116.24,120.52 l 9.52,15.55 c 2.16,1.56 3.49,4.45 3.46,8.5"
         style="fill:#916f6f;fill-opacity:1;fill-rule:nonzero;stroke:none"
         id="path546"
         inkscape:connector-curvature="0" /><path
         d="m 5414.67,1348.49 c -0.26,33.51 -24.11,74.07 -53.26,90.6 -29.15,16.53 -52.57,2.76 -52.32,-30.74 0.27,-33.52 24.12,-74.08 53.27,-90.61 29.15,-16.53 52.56,-2.76 52.31,30.75"
         style="fill:#ffcead;fill-opacity:1;fill-rule:nonzero;stroke:none"
         id="path548"
         inkscape:connector-curvature="0" /><path
         d="m 4952.53,1035.87 447.01,278.48 -75.32,128.13 -460.68,-255.21 56.7728,-96.5884 32.2172,-54.8116"
         style="fill:#ffcead;fill-opacity:1;fill-rule:nonzero;stroke:none"
         id="path550"
         inkscape:connector-curvature="0"
         sodipodi:nodetypes="cccccc" /><path
         d="m 4970.41,1076.2 c -0.31,39.6 -28.48,87.53 -62.93,107.06 -34.45,19.53 -62.12,3.27 -61.81,-36.33 0.31,-39.6 28.48,-87.53 62.93,-107.06 34.44,-19.53 62.12,-3.26 61.81,36.33"
         style="fill:#d9effb;fill-opacity:1;fill-rule:nonzero;stroke:none"
         id="path552"
         inkscape:connector-curvature="0" /><path
         d="m 4944.9,1061.22 c -0.3,39.59 -28.47,87.52 -62.92,107.05 -34.45,19.53 -62.12,3.27 -61.81,-36.33 0.31,-39.59 28.48,-87.53 62.93,-107.06 34.44,-19.53 62.12,-3.26 61.8,36.34"
         style="fill:#d9effb;fill-opacity:1;fill-rule:nonzero;stroke:none"
         id="path554"
         inkscape:connector-curvature="0" /><path
         d="m 4335.66,673.27 591.37,347.61 -88.99,151.4 -591.38,-347.608 89,-151.402"
         style="fill:#ffcead;fill-opacity:1;fill-rule:nonzero;stroke:none"
         id="path556"
         inkscape:connector-curvature="0" /><path
         d="m 4353.53,713.602 c -0.3,39.597 -28.48,87.527 -62.93,107.058 -34.45,19.531 -62.12,3.27 -61.81,-36.32 0.3,-39.602 28.49,-87.531 62.93,-107.07 34.44,-19.532 62.12,-3.258 61.81,36.332"
         style="fill:#ffcead;fill-opacity:1;fill-rule:nonzero;stroke:none"
         id="path558"
         inkscape:connector-curvature="0" /><path
         d="m 4331.2,726.262 c -1.35,23.379 -20.39,52.488 -42.51,65.027 -22.12,12.543 -38.94,3.762 -37.57,-19.609 1.35,-23.379 20.39,-52.489 42.51,-65.032 22.11,-12.539 38.94,-3.757 37.57,19.614"
         style="fill:#916f6f;fill-opacity:1;fill-rule:nonzero;stroke:none"
         id="path560"
         inkscape:connector-curvature="0" /><path
         d="m 4974.9,1078.85 c -0.31,39.59 -28.48,87.53 -62.92,107.06 -13.88,7.86 -26.62,9.83 -36.9,6.9 11.17,11.68 29.51,13.06 50.39,1.23 34.44,-19.53 62.63,-67.47 62.93,-107.06 0.19,-23.65 -9.66,-38.88 -24.91,-43.23 7.26,7.6 11.53,19.49 11.41,35.1"
         style="fill:#ffffff;fill-opacity:1;fill-rule:nonzero;stroke:none"
         id="path562"
         inkscape:connector-curvature="0" /><path
         d="m 4974.9,1078.85 c -0.31,39.6 -28.48,87.53 -62.92,107.06 -17.23,9.76 -32.76,10.57 -43.95,4 l -33.51,-19.7 15.97,-27.15 c 2.92,-36.02 27.02,-77.03 57.06,-97.08 l 15.97,-27.16 33.51,19.69 c 11.19,6.58 18.03,20.54 17.87,40.34"
         style="fill:#916f6f;fill-opacity:1;fill-rule:nonzero;stroke:none"
         id="path564"
         inkscape:connector-curvature="0" /><path
         d="m 4941.4,1059.15 c -0.31,39.6 -28.49,87.53 -62.93,107.06 -34.45,19.53 -62.12,3.26 -61.82,-36.33 0.32,-39.6 28.49,-87.53 62.93,-107.06 34.45,-19.53 62.12,-3.26 61.82,36.33"
         style="fill:#ffcead;fill-opacity:1;fill-rule:nonzero;stroke:none"
         id="path566"
         inkscape:connector-curvature="0" /><path
         d="m 4303.37,708.691 -38.4,65.321 -125.34,-73.684 c -18.05,-10.598 -24.07,-33.816 -13.47,-51.848 10.61,-18.05 33.82,-24.082 51.86,-13.468 l 125.35,73.679"
         style="fill:#d45500;fill-opacity:1;fill-rule:nonzero;stroke:none"
         id="path568"
         inkscape:connector-curvature="0" /><path
         d="m 4311.08,726.09 c -0.13,17.082 -12.29,37.769 -27.15,46.191 -14.87,8.418 -26.8,1.41 -26.67,-15.672 0.14,-17.089 12.29,-37.769 27.16,-46.187 14.85,-8.434 26.79,-1.422 26.66,15.668"
         style="fill:#d45500;fill-opacity:1;fill-rule:nonzero;stroke:none"
         id="path570"
         inkscape:connector-curvature="0" /><path
         d="m 4450.39,956.68 -18.79,10.652 c -10.8,6.129 -25.07,4.59 -40.2,-4.293 l -64.42,-37.859 c -12.15,-7.149 -21.96,-24.442 -21.85,-38.551 l 0.25,-32.238 c 0.04,-5.411 -2.6,-11.621 -6.48,-16.192 l 2.41,-14.937 -16.05,9.199 0.04,0.027 c -2.33,1.172 -3.81,3.883 -3.84,7.84 l -0.26,32.242 c -0.22,29.399 20.22,65.461 45.57,80.36 l 64.41,37.859 c 21.52,12.651 41.83,14.811 57.19,6.109 l 18.79,-10.66 c 10.8,-6.109 25.08,-4.59 40.22,4.313 l 259.63,152.609 c 3.36,1.98 6.39,2.14 8.59,0.84 v 0.02 l 16.01,-9.18 -13.71,-5.28 c -1.9,-5.76 -5.93,-11.37 -10.67,-14.15 L 4507.59,962.789 c -21.52,-12.648 -41.84,-14.82 -57.2,-6.109"
         style="fill:#916f6f;fill-opacity:1;fill-rule:nonzero;stroke:none"
         id="path572"
         inkscape:connector-curvature="0" /><path
         d="m 4447.87,958.031 c -10.8,6.11 -25.07,4.59 -40.2,-4.312 l -64.42,-37.86 c -12.15,-7.148 -21.96,-24.429 -21.85,-38.539 l 0.25,-32.238 c 0.06,-7.66 -5.24,-17.023 -11.85,-20.91 -6.6,-3.883 -12.01,-0.813 -12.07,6.848 l -0.26,32.242 c -0.22,29.41 20.22,65.449 45.57,80.347 l 64.41,37.86 c 21.52,12.652 41.83,14.832 57.19,6.133 l 18.79,-10.672 c 10.79,-6.121 25.08,-4.59 40.22,4.308 l 259.63,152.622 c 6.62,3.87 12.02,0.81 12.07,-6.85 0.06,-7.66 -5.24,-17.03 -11.85,-20.91 L 4523.86,953.488 c -21.52,-12.656 -41.84,-14.828 -57.2,-6.129 l -18.79,10.672"
         style="fill:#916f6f;fill-opacity:1;fill-rule:nonzero;stroke:none"
         id="path574"
         inkscape:connector-curvature="0" /><path
         d="m 4320.6,872 0.24,-32.23 -0.1,-0.661 c 0.6,2.02 0.93,4.051 0.91,5.981 l -0.25,32.23 c 0,0.918 0.14,1.879 0.21,2.821 -0.61,-2.762 -1.04,-5.512 -1.01,-8.141"
         style="fill:#ffffff;fill-opacity:1;fill-rule:nonzero;stroke:none"
         id="path576"
         inkscape:connector-curvature="0" /><path
         d="m 4095.59,1387.18 c -52.17,0 -104.34,11.5 -144.14,34.48 -79.62,45.97 -79.62,120.49 -0.01,166.45 39.8,22.98 91.97,34.47 144.14,34.47 52.18,0 104.35,-11.49 144.16,-34.48 79.62,-45.95 79.62,-120.47 0.01,-166.44 -39.81,-22.98 -91.98,-34.48 -144.16,-34.48"
         style="fill:#ff9955;fill-opacity:1;fill-rule:nonzero;stroke:none"
         id="path578"
         inkscape:connector-curvature="0" /><path
         d="m 4327.52,1605.55 v 65.11 h -12.29 c -11.05,19.01 -29.43,36.91 -55.65,52.04 -90.56,52.3 -237.41,52.3 -327.99,0 -26.22,-15.13 -44.6,-33.03 -55.63,-52.04 h -12.28 v -64.76 h 0.01 c -0.15,-34.39 22.46,-68.8 67.91,-95.04 90.57,-52.3 237.42,-52.3 327.99,0 45.29,26.14 67.93,60.42 67.93,94.69"
         style="fill:#d45500;fill-opacity:1;fill-rule:nonzero;stroke:none"
         id="path580"
         inkscape:connector-curvature="0" /><path
         d="m 4259.59,1575.98 c -90.57,-52.29 -237.42,-52.29 -328,0.01 -90.56,52.28 -90.57,137.07 0,189.36 90.57,52.29 237.43,52.29 327.99,-0.01 90.58,-52.28 90.58,-137.07 0.01,-189.36"
         style="fill:#d45500;fill-opacity:1;fill-rule:nonzero;stroke:none"
         id="path582"
         inkscape:connector-curvature="0" /><path
         d="m 4259.59,1575.99 c -90.57,-52.3 -237.42,-52.3 -327.99,0 -43.4,25.05 -65.78,57.58 -67.58,90.42 -1.96,-35.68 20.42,-71.72 67.58,-98.95 90.57,-52.29 237.42,-52.29 327.99,0 47.17,27.23 69.53,63.26 67.58,98.95 -1.81,-32.84 -24.17,-65.37 -67.58,-90.42"
         style="fill:#ffffff;fill-opacity:1;fill-rule:nonzero;stroke:none"
         id="path584"
         inkscape:connector-curvature="0" /><path
         d="m 3983.81,1626.33 c -3.91,2.25 -6.12,5.32 -6.11,8.54 l 0.23,87.25 c 0.01,6.65 9.38,12.04 20.9,12.03 11.54,0 20.85,-5.41 20.84,-12.08 l -0.19,-72.33 209.95,25.7 c 11.29,1.39 22.36,-2.77 24.75,-9.29 2.4,-6.5 -4.81,-12.91 -16.08,-14.29 l -235.2,-28.79 c -6.17,-0.76 -12.59,0.13 -17.49,2.43 l -1.6,0.83"
         style="fill:#ffe6d5;fill-opacity:1;fill-rule:nonzero;stroke:none"
         id="path586"
         inkscape:connector-curvature="0" /><path
         d="m 2896.95,2346.77 -172.31,99.48 172.31,99.48 172.31,-99.48 -172.31,-99.48"
         style="fill:#ffb380;fill-opacity:1;fill-rule:nonzero;stroke:none"
         id="path588"
         inkscape:connector-curvature="0" /><path
         d="m 3069.26,2572.55 -172.3,-99.47 v 198.95 l 172.3,99.48 v -198.96"
         style="fill:#d45500;fill-opacity:1;fill-rule:nonzero;stroke:none"
         id="path590"
         inkscape:connector-curvature="0" /><path
         d="m 2896.96,2672.03 -172.31,99.48 172.3,99.48 172.31,-99.49 -172.3,-99.47"
         style="fill:#d45500;fill-opacity:1;fill-rule:nonzero;stroke:none"
         id="path592"
         inkscape:connector-curvature="0" /><path
         d="m 2896.96,2473.08 -172.31,99.47 v 198.96 l 172.31,-99.48 v -198.95"
         style="fill:#d45500;fill-opacity:1;fill-rule:nonzero;stroke:none"
         id="path594"
         inkscape:connector-curvature="0" /><path
         d="m 2834.9,2580.56 -48.2,27.82 v 55.64 l 48.2,-27.82 v -55.64"
         style="fill:#ffffff;fill-opacity:1;fill-rule:nonzero;stroke:none"
         id="path596"
         inkscape:connector-curvature="0" /><path
         d="M 1825.02,563.039 1645.63,666.609 1825.01,770.18 2004.4,666.602 1825.02,563.039"
         style="fill:#ffb380;fill-opacity:1;fill-rule:nonzero;stroke:none"
         id="path598"
         inkscape:connector-curvature="0" /><path
         d="M 2004.41,798.102 1825.02,694.531 V 901.66 l 179.39,103.56 V 798.102"
         style="fill:#552200;fill-opacity:1;fill-rule:nonzero;stroke:none"
         id="path600"
         inkscape:connector-curvature="0" /><path
         d="m 1825.02,901.66 -179.38,103.56 179.37,103.58 179.39,-103.58 -179.38,-103.56"
         style="fill:#ffccaa;fill-opacity:1;fill-rule:nonzero;stroke:none"
         id="path602"
         inkscape:connector-curvature="0" /><path
         d="M 1825.02,694.531 1645.64,798.102 V 1005.22 L 1825.02,901.66 V 694.531"
         style="fill:#916f6f;fill-opacity:1;fill-rule:nonzero;stroke:none"
         id="path604"
         inkscape:connector-curvature="0" /><path
         d="m 1760.41,806.43 -50.17,28.968 v 57.934 l 50.17,-28.973 V 806.43"
         style="fill:#ffffff;fill-opacity:1;fill-rule:nonzero;stroke:none"
         id="path606"
         inkscape:connector-curvature="0" /><path
         d="m 2520.13,793.289 c -14.74,0 -29.47,3.813 -42.68,11.441 l -668.48,385.95 c -15.02,8.67 -15.02,30.35 0,39.03 l 635.61,366.92 711.16,-410.59 c 15.03,-8.67 15.03,-30.35 0,-39.03 L 2562.81,804.73 c -13.2,-7.628 -27.94,-11.441 -42.68,-11.441"
         style="fill:#ffb380;fill-opacity:1;fill-rule:nonzero;stroke:none"
         id="path608"
         inkscape:connector-curvature="0" /><path
         d="m 2458.17,1864.24 c 0.04,42.44 -29.86,59.73 -66.63,38.54 l -625.21,-360.21 c -10.12,-5.82 -18.32,-20.01 -18.33,-31.68 -0.01,-11.67 8.17,-16.41 18.29,-10.59 l 625.21,360.22 c 16.59,9.56 30.06,1.75 30.05,-17.39 l -0.06,-69.92 c 12.13,0.76 24.3,0.77 36.6,0.56 l 0.08,90.47"
         style="fill:#d45500;fill-opacity:1;fill-rule:nonzero;stroke:none"
         id="path610"
         inkscape:connector-curvature="0" /><path
         d="m 1766.06,1374.58 625.2,227.82 c 36.78,21.19 66.74,72.97 66.78,115.41 l 0.05,55.96 c -12.3,0.21 -24.47,0.2 -36.6,-0.56 l -0.07,-76.49 c -0.02,-19.15 -13.53,-42.49 -30.12,-52.05 l -625.2,-227.82 c -10.11,-5.83 -18.32,-20.02 -18.33,-31.69 -0.01,-11.66 8.18,-16.41 18.29,-10.58"
         style="fill:#d45500;fill-opacity:1;fill-rule:nonzero;stroke:none"
         id="path612"
         inkscape:connector-curvature="0" /><path
         d="m 1752.5,1373.74 760.54,-440.08 643.91,384.01 51.08,76.25 -5.3,-27.03 -13.73,70.74 -1195.26,-45.6 -210.59,13.57 -30.65,-31.86"
         style="fill:#d45500;fill-opacity:1;fill-rule:nonzero;stroke:none"
         id="path614"
         inkscape:connector-curvature="0" /><path
         d="m 1777.72,1506.54 -0.21,-93.61 712.6699,-419.72597 22.3901,-5.53203 19.85,89.208 -754.7,429.66"
         style="fill:#ff9955;fill-opacity:1;fill-rule:nonzero;stroke:none"
         id="path616"
         inkscape:connector-curvature="0"
         sodipodi:nodetypes="cccccc" /><path
         d="m 3198.56,1467.72 -759.33,439.31 -684.61,-398.12 -1.41,-9.79 760.44,-439.95 684.91,408.55"
         style="fill:#d45500;fill-opacity:1;fill-rule:nonzero;stroke:none"
         id="path618"
         inkscape:connector-curvature="0" /><path
         d="m 2956.48,1242.13 178.53,105.9 c 15.04,10.57 26.84,31.93 26.86,49.79 l 0.12,14.03 c 0.01,11.33 -4.73,18.66 -12.04,20.78 l -351.44,-195.51 -286.2,-154.8 0.26,-94.648 443.91,254.458"
         style="fill:#ffe6d5;fill-opacity:1;fill-rule:nonzero;stroke:none"
         id="path620"
         inkscape:connector-curvature="0" /><path
         d="m 2537.97,1073.68 -754.51,436.51 -15.99,9.26 -14.61,8.45 c -2.98,-5.48 -4.86,-11.51 -4.86,-17.01 -0.01,-5.74 1.98,-9.78 5.2,-11.73 l 0.01,-0.04 0.11,-0.07 0.06,-0.03 760.27,-439.85 24.32,14.51"
         style="fill:#aa4400;fill-opacity:1;fill-rule:nonzero;stroke:none"
         id="path622"
         inkscape:connector-curvature="0" /><path
         d="m 2503.55,939.148 9.49,-5.488 1.75,3.02 -5.91,4.652 -5.33,-2.184"
         style="fill:#ffffff;fill-opacity:1;fill-rule:nonzero;stroke:none"
         id="path624"
         inkscape:connector-curvature="0" /><path
         d="m 2503.8,1064.89 9.72,-5.62 -2.43,5.3 z"
         style="fill:#ffffff;fill-opacity:1;fill-rule:nonzero;stroke:none"
         id="path626"
         inkscape:connector-curvature="0" /><path
         d="m 2526.77,1102.62 625.21,360.21 c 36.77,21.2 66.67,3.91 66.63,-38.54 l -0.13,-14.03 c -0.04,-42.45 -30,-94.23 -66.78,-115.42 L 2526.5,934.629 c -10.11,-5.82 -18.3,-1.09 -18.29,10.582 0.01,11.668 8.22,25.859 18.33,31.68 l 625.2,360.219 c 16.59,9.56 30.1,32.91 30.12,52.05 l 0.12,14.02 c 0.02,19.15 -13.46,26.95 -30.04,17.4 l -625.21,-360.23 c -10.12,-5.82 -18.31,-1.08 -18.29,10.59 0.01,11.67 8.21,25.86 18.33,31.68"
         style="fill:#d45500;fill-opacity:1;fill-rule:nonzero;stroke:none"
         id="path628"
         inkscape:connector-curvature="0" /><path
         d="m 2508.21,945.211 c 0.01,11.668 8.22,25.859 18.33,31.68 l 625.2,360.219 c 16.59,9.56 30.1,32.91 30.11,52.05 l 0.13,14.02 c 0.01,12.54 -5.78,20.17 -14.42,21.28 2.78,-3.65 4.42,-8.86 4.41,-15.48 l -0.13,-14.03 c -0.02,-19.14 -13.53,-42.49 -30.12,-52.04 l -625.2,-360.219 c -10.11,-5.832 -18.32,-20.011 -18.33,-31.679 -0.01,-8.84 4.7,-13.692 11.38,-12.981 -0.87,1.957 -1.36,4.348 -1.36,7.18"
         style="fill:#ff6600;fill-opacity:1;fill-rule:nonzero;stroke:none"
         id="path630"
         inkscape:connector-curvature="0" /><path
         d="m 2508.44,1070.94 c 0.01,11.67 8.21,25.86 18.33,31.68 l 625.21,360.21 c 15.83,9.13 30.38,11.09 41.82,7 -12.23,10.42 -30.91,10.86 -51.84,-1.2 l -625.21,-360.21 c -10.12,-5.83 -18.32,-20.02 -18.33,-31.68 -0.01,-8.85 4.7,-13.68 11.38,-12.99 -0.87,1.96 -1.37,4.36 -1.36,7.19"
         style="fill:#ff6600;fill-opacity:1;fill-rule:nonzero;stroke:none"
         id="path632"
         inkscape:connector-curvature="0" /><path
         d="m 2219.28,1459.05 344.95,198.75 299.17,-173.08 -344.95,-198.74 -299.17,173.07"
         style="fill:#ffe6d5;fill-opacity:1;fill-rule:nonzero;stroke:none"
         id="path634"
         inkscape:connector-curvature="0" /><path
         d="m 3322.39,438.012 c -90.49,0.008 -181,19.937 -250.03,59.797 -138.1,79.73 -138.1,209 0.01,288.73 69.05,39.871 159.54,59.801 250.05,59.801 90.49,0 181,-19.93 250.04,-59.801 138.1,-79.719 138.09,-208.988 -0.01,-288.73 -69.06,-39.868 -159.55,-59.797 -250.06,-59.797 m 0.02,298.008 c -41.6,0 -83.2,-9.161 -114.94,-27.481 -63.48,-36.66 -63.48,-96.078 -0.01,-132.73 31.74,-18.321 73.34,-27.477 114.94,-27.477 41.6,0 83.21,9.156 114.95,27.488 63.47,36.649 63.48,96.059 0,132.719 -31.74,18.32 -73.34,27.481 -114.94,27.481"
         style="fill:#ff9955;fill-opacity:1;fill-rule:nonzero;stroke:none"
         id="path636"
         inkscape:connector-curvature="0" /><path
         d="m 3624.62,833.789 -126.14,-1.969 c -9.34,12.141 -22.59,23.532 -39.84,33.489 -69.37,40.05 -178.44,43.152 -254.02,9.351 l -74.95,70.5 -115.42,-1.808 c 5.7,3.73 11.56,7.41 17.74,10.988 160.4,92.59 420.44,92.6 580.83,0 29.51,-17.039 53.53,-36.02 72.18,-56.231 l -60.38,-64.32"
         style="fill:#d45500;fill-opacity:1;fill-rule:nonzero;stroke:none"
         id="path638"
         inkscape:connector-curvature="0" /><path
         d="M 3014.25,1126.53 V 943.352 l 115.42,1.808 v 183.17 l -115.42,-1.8"
         style="fill:#d45500;fill-opacity:1;fill-rule:nonzero;stroke:none"
         id="path640"
         inkscape:connector-curvature="0" /><path
         d="M 3204.62,1057.84 V 874.66 l -74.95,70.5 v 183.17 l 74.95,-70.49"
         style="fill:#d45500;fill-opacity:1;fill-rule:nonzero;stroke:none"
         id="path642"
         inkscape:connector-curvature="0" /><path
         d="M 3498.48,1015 V 831.82 L 3332.54,967.039 3204.62,874.66 v 183.18 l 117.78,57.14 c 0,0 162.15,-49.64 170.58,-51.75 8.43,-2.11 5.5,-48.23 5.5,-48.23"
         style="fill:#d45500;fill-opacity:1;fill-rule:nonzero;stroke:none"
         id="path644"
         inkscape:connector-curvature="0" /><path
         d="M 3624.62,1016.96 V 833.789 L 3498.48,831.82 V 1015 l 126.14,1.96"
         style="fill:#d45500;fill-opacity:1;fill-rule:nonzero;stroke:none"
         id="path646"
         inkscape:connector-curvature="0" /><path
         d="M 3685,1081.29 V 898.109 l -60.38,-64.32 v 183.171 l 60.38,64.33"
         style="fill:#d45500;fill-opacity:1;fill-rule:nonzero;stroke:none"
         id="path648"
         inkscape:connector-curvature="0" /><path
         d="M 3624.62,1016.96 3498.48,1015 c -9.34,12.15 -22.59,23.53 -39.84,33.5 -69.37,40.04 -178.44,43.14 -254.02,9.34 l -74.95,70.49 -115.42,-1.8 c 5.7,3.73 11.56,7.41 17.74,10.98 160.4,92.61 420.44,92.61 580.83,0.01 29.51,-17.03 53.53,-36.03 72.18,-56.23 l -60.38,-64.33"
         style="fill:#d45500;fill-opacity:1;fill-rule:nonzero;stroke:none"
         id="path650"
         inkscape:connector-curvature="0" /><path
         d="M 3166.63,1035.3 V 866.91 l -109.2,26.172 c 0,0 6.42,98.527 8.74,101.16 2.33,2.629 100.46,41.058 100.46,41.058"
         style="fill:#ff7f2a;fill-opacity:1;fill-rule:nonzero;stroke:none"
         id="path652"
         inkscape:connector-curvature="0" /><path
         d="M 3249.26,866.91 V 683.73 l -11.8,-12.57 -76.97,44.391 c 0,0 11.93,139.828 13.34,142.64 1.41,2.809 75.43,8.719 75.43,8.719"
         style="fill:#2b1100;fill-opacity:1;fill-rule:nonzero;stroke:none"
         id="path654"
         inkscape:connector-curvature="0" /><path
         d="m 3100.62,914.211 66.01,-62.082 c -54.99,-43.508 -48.48,-104.848 19.54,-144.117 18.64,-10.762 40.14,-18.852 63.09,-24.282 l -68.23,-72.691 60.46,-56.848 c -76.77,8.86 -150,30.438 -209.51,64.789 -137.89,79.61 -157.11,201.711 -57.92,293.258 l 126.56,1.973"
         style="fill:#d45500;fill-opacity:1;fill-rule:nonzero;stroke:none"
         id="path656"
         inkscape:connector-curvature="0" /><path
         d="M 3241.49,737.359 V 554.191 l -149.69,57.797 -180.04,171.774 0.67,194.508 190.47,-150.981 138.59,-89.93"
         style="fill:#d45500;fill-opacity:1;fill-rule:nonzero;stroke:none"
         id="path658"
         inkscape:connector-curvature="0" /><path
         d="m 3100.62,1097.38 66.01,-62.08 c -54.99,-43.499 -48.48,-104.839 19.54,-144.109 18.64,-10.761 40.14,-18.851 63.09,-24.281 l -68.23,-72.68 60.46,-56.871 c -76.77,8.871 -150,30.45 -209.51,64.813 -137.89,79.598 -157.11,201.698 -57.92,293.238 l 126.56,1.97"
         style="fill:#ffcead;fill-opacity:1;fill-rule:nonzero;stroke:none"
         id="path660"
         inkscape:connector-curvature="0" /><path
         d="m 3241.98,611.988 60.13,64.071 c 55.83,-3.387 113.74,7.242 156.53,31.953 44.19,25.508 62.39,60.34 54.66,93.539 l 143.22,2.238 55.06,58.66 c 48.17,-82.668 15.31,-177.609 -98.76,-243.461 -83.81,-48.386 -194.84,-71.437 -304.64,-69.258 l -66.2,62.258"
         style="fill:#916f6f;fill-opacity:1;fill-rule:nonzero;stroke:none"
         id="path662"
         inkscape:connector-curvature="0" /><path
         d="M 3308.18,732.91 V 549.73 l 424.84,235.43 V 968.43 L 3670.99,943.352 3308.18,732.91"
         style="fill:#916f6f;fill-opacity:1;fill-rule:nonzero;stroke:none"
         id="path664"
         inkscape:connector-curvature="0" /><path
         d="M 3241.98,795.18 V 611.988 l 66.2,-62.258 v 183.18 l -66.2,62.27"
         style="fill:#2b1100;fill-opacity:1;fill-rule:nonzero;stroke:none"
         id="path666"
         inkscape:connector-curvature="0" /><path
         d="m 3241.98,795.18 60.13,64.07 c 55.83,-3.398 113.74,7.23 156.53,31.941 44.19,25.52 62.39,60.34 54.66,93.547 l 143.22,2.231 55.06,58.661 c 48.17,-82.661 15.31,-177.599 -98.76,-243.458 -83.81,-48.391 -194.84,-71.442 -304.64,-69.262 l -66.2,62.27"
         style="fill:#916f6f;fill-opacity:1;fill-rule:nonzero;stroke:none"
         id="path668"
         inkscape:connector-curvature="0" /></g></g></svg>