<svg id="Слой_1" data-name="Слой 1" xmlns="http://www.w3.org/2000/svg" viewBox="0 0 1929.12 1328.41"><defs><style>.cls-1{fill:#ebf3fa;}.cls-2{fill:#2e3552;}.cls-3{fill:#ffb27d;}.cls-4{fill:#233862;}.cls-5{fill:#c94c43;}.cls-6{fill:#ed975d;}.cls-7{fill:#fff;}.cls-8{fill:#1c468a;}.cls-9{fill:#f99746;}.cls-10{fill:#efcbab;}.cls-11{fill:#d8a987;}.cls-12{fill:#ddb08e;}.cls-13{fill:#b56f40;}.cls-14{fill:#99592e;}.cls-15{fill:#2c3a64;}.cls-16{fill:#d2e3fc;}.cls-17{fill:#fff0e6;}.cls-18{fill:#82b378;}.cls-19{fill:#6bb7bf;}.cls-20{fill:#86d1cd;}.cls-21{fill:#5685d8;}.cls-22{fill:#739af0;}.cls-23{fill:#ed7d2b;}</style></defs><path class="cls-1" d="M1265.74,1648.37s-200.6-162.86-108-403.38c62.86-163.23,92.64-71,576.43-721.63,318.51-428.34,1253.05-141,1064.64,589.22-91.17,353.4,299.28,183.28,111.43,536.54Z" transform="translate(-1133.34 -323.06)"/><rect class="cls-2" x="68.91" y="1320.85" width="1860.21" height="7.56" rx="3.23"/><path class="cls-3" d="M2195,1027.4a46.87,46.87,0,0,0-8-8.55c-4.26-3.29-8.76-9.46-7.44-11.46S2193.69,996,2193.69,996l6.83,16.89Z" transform="translate(-1133.34 -323.06)"/><polygon class="cls-4" points="1172.19 507.32 1283.71 463.12 1346.09 523.27 1240.08 564.62 1172.19 507.32"/><path class="cls-3" d="M2244.69,1068.65l-44.4-57L2195,1027.4s45.47,103.42,66.3,93.8C2271,1116.72,2244.69,1068.65,2244.69,1068.65Z" transform="translate(-1133.34 -323.06)"/><path class="cls-5" d="M2383.47,882.69s-21.66,12.76-8.37,37.49c0,0-19-3.47-23.06-9.14a15,15,0,0,0,1.18,3.55s-22.23-2.82-26.33-11.11c-8.44-17.08,12.05-16,20.91-33.74,11.58-23.17,29.74-41.38,55.42-28.59,0,0,35.91-2,19.67,44.05s-.89,50.08-.89,50.08-4.82,1-6.88.43c0,0-2.71-1.94-2.86-3.77,0,0-.1,2.78.45,3.81,0,0-17-2.81-23.59-11.25S2378.54,891.76,2383.47,882.69Z" transform="translate(-1133.34 -323.06)"/><path class="cls-3" d="M2352.19,956.77l-.07,0C2352,956.78,2352,956.77,2352.19,956.77Z" transform="translate(-1133.34 -323.06)"/><path class="cls-3" d="M2404.85,941.61c.63,5.71,1.39,10.82,1.73,13.26.25,1.75,4.2,32.87-3,33.18s-25.1,37.19-33.15,36.89c-9-.34-17-68.17-18.2-68.17,2.31-1,9.34-23.31,11.57-31.82,2.7-10.32,4.81-21.47,4.81-21.47l36.61,2.31,2.18.14a128,128,0,0,0-3,14.08c-.08.58-.17,1.18-.25,1.76C2403.47,926.63,2404.06,934.57,2404.85,941.61Z" transform="translate(-1133.34 -323.06)"/><path class="cls-5" d="M2363.53,899.79s-5.94-18.82-4.74-33.26c.86-10.3,17.28-39.53,52.55-24.57,0,0,8.62-2.06,16.84,7.35,6.53,7.48,15,22.13-6.32,50.56l-6.19,9.87Z" transform="translate(-1133.34 -323.06)"/><path class="cls-6" d="M2404.85,941.61c-25.61-7.5-36.48-37.08-36.48-37.08,10.83.32,24.94,7.84,36,15.48-.08.58-.17,1.18-.25,1.76C2403.47,926.63,2404.06,934.57,2404.85,941.61Z" transform="translate(-1133.34 -323.06)"/><path class="cls-3" d="M2406.66,931.22s-46.27-11.44-38.7-40.14,6.68-49.51,36.54-43.42,32.69,18.55,32.5,28.74S2418.89,933.45,2406.66,931.22Z" transform="translate(-1133.34 -323.06)"/><path class="cls-5" d="M2425.67,852.51s-21.52,30.33-42.2,30.18-27.69-7.56-27.69-7.56a56.72,56.72,0,0,0,26.5-27.63S2420.4,834,2425.67,852.51Z" transform="translate(-1133.34 -323.06)"/><path class="cls-5" d="M2421.82,854.42s7.43,10,7.79,17.92-2.58,23.23,1.94,23.88c0,0,15.56-20.37,8.3-36.14C2432.16,843.36,2421.82,854.42,2421.82,854.42Z" transform="translate(-1133.34 -323.06)"/><path class="cls-5" d="M2423.27,856s-18.32,32.87-45.73,37.69c0,0,30.16-15.19,38.39-37.91S2423.27,856,2423.27,856Z" transform="translate(-1133.34 -323.06)"/><path class="cls-7" d="M2399.44,912.82s.58,4.37,3.36,5.4,10.19,2.91,10.94,2.44a36.69,36.69,0,0,0,3.52-3.87S2405.6,912.32,2399.44,912.82Z" transform="translate(-1133.34 -323.06)"/><path class="cls-3" d="M2382.17,1351.89c-.6,2.45-1.18,4.88-1.76,7.29-3.49,14.49-6.74,27.93-8.79,39.19-2.65,14.63-3.28,25.52.21,30.09,9,11.81,6.72,75,3.75,120.48-1.75,27.07-3.75,47.87-3.75,47.87l-16.35,16.84s-5.18-26.87-11.71-59.47c-8.78-43.82-20-98-24.43-111.26-3.51-10.52-8.61-55.42-13.13-101.26-.22-2.29-.45-4.58-.67-6.88-.78-8-1.53-16-2.25-23.81-4.05-43.36,1.81-84.2,1.81-84.2s21.27-17.51,48.66-19.87c16.14-1.4,31.32,3.73,38.82,23.57C2403.5,1259.32,2392.43,1309.13,2382.17,1351.89Z" transform="translate(-1133.34 -323.06)"/><path class="cls-6" d="M2382.16,1351.88c-22.4-16.18-53.92-45-65.36-92.17-2.19-23.47,16.31-45.76,37-52.81,16.14-1.41,31.32,3.73,38.82,23.56C2403.5,1259.31,2392.44,1309.14,2382.16,1351.88Z" transform="translate(-1133.34 -323.06)"/><path class="cls-3" d="M2463.87,1066.79l110.1,28.45v12.85s-109.57-1.28-116.64-13.49S2463.87,1066.79,2463.87,1066.79Z" transform="translate(-1133.34 -323.06)"/><path class="cls-3" d="M2574,1490.57l-5.14,21.24s-22.75-11.75-51.62-26.94c-45-23.69-104.86-55.76-116.6-64.76-7.73-5.94-18-38.17-27.42-74.63-14.11-54.36-26.54-118.1-26.54-118.1s20.87-80.31,76.77-31.16c33.44,29.41,28.25,86.09,24.58,130.17-2.44,29.57-4.19,53.48,6.9,59.67,15.93,8.89,54.53,41.37,81.81,73.16,9.78,11.4,18.1,22.71,23.41,32.81Z" transform="translate(-1133.34 -323.06)"/><path class="cls-3" d="M2574,1095.24s20.21-10,28.24-10.92,21.52-1.28,21.52,0-14.46,10.27-18.31,10.92-11.24,6.11-9,6.75,14.14-2.09,14.3,0-7.23,3.37-8.51,5-5.79,3.53-13,2.57-15.23-1.45-15.23-1.45Z" transform="translate(-1133.34 -323.06)"/><path class="cls-8" d="M2574,1398c-71.1,102.37-254.53,113.85-254.53,113.85-29.78-108.7-17.58-383.54-10.76-485.7-.42-17.84.27-32.93,3.2-38.73,4.56-9,29.35-24.73,38.26-32.53a15.55,15.55,0,0,1,3.84-1c1.33,4.68,17.86,60.77,19.5,59.6S2403,959,2405.93,952.74c3,.09,5,.16,5.63.19,4.92.24,31.45,5.55,33.67,9.83.78,1.49,8.39,21.68,18,48.4a.42.42,0,0,0,0,.07c17.94,50.13,44.25,40.72,54.7,55.57,6.57,9.32,3.74,26.72-8.44,41.76-1,1.28-2.13,2.53-3.3,3.76-9.27,9.81-21.84,15.61-42.3,12.6-5.09-.75-15.38-5.67-23.78-12.93C2460.22,1187.62,2574,1398,2574,1398Z" transform="translate(-1133.34 -323.06)"/><path class="cls-9" d="M2355.2,951.27l-9.63,5.5s26.28,74.35,27.58,74,40.78-77.6,40.78-77.6l-8-3.36-32.4,63.65Z" transform="translate(-1133.34 -323.06)"/><path class="cls-8" d="M2437.15,855.41s-33.69-18.89-89.35,14.33l2.4-9.13a30.31,30.31,0,0,1,15-19.07c8.39-4.48,21.36-8.86,39.84-8.71a34,34,0,0,1,30.06,18.56Z" transform="translate(-1133.34 -323.06)"/><path class="cls-10" d="M2269.26,879.64l-.83-2.81c29.84-8.84,36.24-39.83,37.33-47.06a2.35,2.35,0,0,1,1.72-1.91h0a1.29,1.29,0,0,1,1.61,1.46C2307.71,837.7,2300.38,870.41,2269.26,879.64Z" transform="translate(-1133.34 -323.06)"/><polygon class="cls-11" points="1135.09 553.77 1131.12 553.77 1132.65 558.59 1135.92 556.58 1135.09 553.77"/><path class="cls-10" d="M2264.46,876.83s-5.48,1.53-6.64,0c0,0-.12,4.63,1.83,5.85,0,0,4.4.15,6.33-1Z" transform="translate(-1133.34 -323.06)"/><path class="cls-7" d="M2357.17,958s8.8,16.18,43.84,1.44l-27.53,54.08Z" transform="translate(-1133.34 -323.06)"/><path class="cls-8" d="M2345.57,956.77S2341,1110.67,2303,1140.5a22.93,22.93,0,0,1-8.54,4.37c-19.18,4.89-33.11-6.53-42.54-22.36-13.11-22-17.55-52.47-15.32-59.5,4.23-13.37,14,10.28,34.46,3.79s26-89,40.3-101C2315.13,962.66,2345.57,956.77,2345.57,956.77Z" transform="translate(-1133.34 -323.06)"/><path class="cls-10" d="M2160.34,1066.29a112.07,112.07,0,0,1-11.17-7.06,46.6,46.6,0,0,1-6.75-5.86,14.14,14.14,0,0,1-2.34-3.33s46.35-55.79,50-62.35S2228.76,927,2228.76,927a90.22,90.22,0,0,1,9.41,5.34,71.56,71.56,0,0,1,5.91,4.25,36.72,36.72,0,0,1,9.11,10s-50.91,51.58-54.5,59S2160.34,1066.29,2160.34,1066.29Z" transform="translate(-1133.34 -323.06)"/><path class="cls-12" d="M2149.17,1059.23a46.6,46.6,0,0,1-6.75-5.86,14.14,14.14,0,0,1-2.34-3.33s46.35-55.79,50-62.35S2228.76,927,2228.76,927a90.22,90.22,0,0,1,9.41,5.34,71.56,71.56,0,0,1,5.91,4.25c-14.29,14.58-52.88,54.35-56.18,61.17C2184.71,1004.4,2159.58,1043.23,2149.17,1059.23Z" transform="translate(-1133.34 -323.06)"/><path class="cls-5" d="M2196.84,976.8s-13.67,13.26-15.24,22.3l14.3,11.47s12.5-12.25,16.47-21.31Z" transform="translate(-1133.34 -323.06)"/><path class="cls-3" d="M2200.29,1011.64s1-9-1.1-12.17-2.26-11.9-4.18-11-.69,8.08-1.91,11.53-3,19.53,1.91,22.58S2200.29,1011.64,2200.29,1011.64Z" transform="translate(-1133.34 -323.06)"/><path class="cls-3" d="M2186.43,989.05s-5.69-.88-7.77,2.9-4.64,9.92-.73,12.35S2186.43,989.05,2186.43,989.05Z" transform="translate(-1133.34 -323.06)"/><path class="cls-7" d="M2375.58,1548.94c-1.75,27.07-3.75,47.87-3.75,47.87l-16.35,16.84s-5.18-26.87-11.71-59.47C2343.77,1554.18,2362.1,1560.55,2375.58,1548.94Z" transform="translate(-1133.34 -323.06)"/><path class="cls-4" d="M2388.27,1621.15l-8.82,4.77c-3.21,1.14-5.86,1.46-9.1,2.71-4.93,1.89-8.4,5.6-8.57,6.27-2.49,10.12-6,9.47-6,9.47l-35.44.34c-1.67-.84,1.16-8,2.52-9.33,3.35-3.3,13.37-1.64,17-12,2.07-5.83,12.24-24,12.24-24l.07-.06c.34-.18,2.23-.55,12.47,1.58,5.29,1.09,7.49-9.65,7.49-9.65a10,10,0,0,1,3.52,1.65,10.68,10.68,0,0,1,3.92,5.32c1.27,3.68,6.47,9,10.21,12.45,2.26,2.09,4,3.52,4,3.52S2395.34,1616.09,2388.27,1621.15Z" transform="translate(-1133.34 -323.06)"/><path class="cls-7" d="M2574,1490.57l-5.14,21.24s-22.75-11.75-51.62-26.94c11.23-7.12,16.78-17.68,19.5-25.65,9.78,11.4,18.1,22.71,23.41,32.81Z" transform="translate(-1133.34 -323.06)"/><path class="cls-4" d="M2603.41,1498.81l-.13,0c-.67-.16-3.73-1.17-5.76-6-1.34-3.2-1.74-5.84-3-9l-5-8.68c-5.26-6.93-7.1-5.31-7.1-5.31s-1.38,1.77-3.41,4.09c-3.35,3.84-8.5,9.19-12.14,10.57a10.51,10.51,0,0,0-5.2,4.07,10.07,10.07,0,0,0-1.56,3.57s10.8,1.88,9.86,7.2c-1.83,10.3-1.4,12.18-1.21,12.51l.06.07s18.42,9.64,24.31,11.54c10.49,3.35,16,10.48,19.36,13.73a6.05,6.05,0,0,0,5.15,1.63c2.77-.44,6.35-1.33,7.14-3Z" transform="translate(-1133.34 -323.06)"/><path class="cls-4" d="M2366.21,1061a5.32,5.32,0,1,1,5.32,5.32A5.32,5.32,0,0,1,2366.21,1061Z" transform="translate(-1133.34 -323.06)"/><path class="cls-4" d="M2366.21,1100.46a5.32,5.32,0,1,1,5.32,5.32A5.32,5.32,0,0,1,2366.21,1100.46Z" transform="translate(-1133.34 -323.06)"/><path class="cls-4" d="M2509.46,1108.56c-1,1.28-2.13,2.53-3.3,3.76-9.27,9.81-21.84,15.61-42.3,12.6-5.09-.75-15.38-5.67-23.78-12.93,0,0-16.87-46.1-14.6-52.6s34.78,44,61.75,46.39C2497.77,1106.71,2504.92,1107.56,2509.46,1108.56Z" transform="translate(-1133.34 -323.06)"/><path class="cls-4" d="M2311.08,1072.72l-8,67.78a22.93,22.93,0,0,1-8.54,4.37c-19.18,4.89-33.11-6.53-42.54-22.36,9.83,1.37,33.67,3.49,38.87-6.89C2297.43,1102.46,2311.08,1072.72,2311.08,1072.72Z" transform="translate(-1133.34 -323.06)"/><path class="cls-13" d="M1845.56,703.52s9.56-8.62,11.89-14.66,2-16.18,2-22.77a2.66,2.66,0,0,0-3.58,2.13c-.71,3.14-2,10.4-4.65,11.86s-8.59,1.29-10,8.78S1845.56,703.52,1845.56,703.52Z" transform="translate(-1133.34 -323.06)"/><path class="cls-13" d="M1823.7,705s-8.69-17.79-6.93-23.58,28.45-12.14,32-9.41,0,36,0,36Z" transform="translate(-1133.34 -323.06)"/><path class="cls-13" d="M2104.62,1240.86s-1.28,14.69,3.83,21.71,7.88,13.41,9.58,10.21-2.77-14.25-1.28-14,5.62,13.19,7.71,17.24,6.55,10.43,9.53,7.23-2.77-33.41-5.11-37.24-7.23-12.34-7.23-12.34Z" transform="translate(-1133.34 -323.06)"/><polygon class="cls-4" points="787.72 475.15 889.34 418 957.61 502.59 864.57 547.73 787.72 475.15"/><path class="cls-5" d="M1963.73,825.16s-2.12,9.12-8.08,12.36,3.4,12,1.06,18.48,7.11,14.79,7.11,14.79l65.63,7.55a18.85,18.85,0,0,0,10.47-15.45c.85-11.28,1.86-25.37,1.86-25.37l-28.67-21.87-41.29,2Z" transform="translate(-1133.34 -323.06)"/><path class="cls-10" d="M1743.22,715.73a133,133,0,0,1-5.15-14.88,56.26,56.26,0,0,1-1.93-10.47,16.73,16.73,0,0,1,.31-4.83s84.6-17.48,92.9-20.86,81.07-27.75,81.07-27.75a106.52,106.52,0,0,1,4.8,12c.85,2.57,1.68,5.42,2.34,8.34,1.21,5.4,1.85,11.13,1,16.1,0,0-85.72,10.18-94.6,14.44S1743.22,715.73,1743.22,715.73Z" transform="translate(-1133.34 -323.06)"/><path class="cls-12" d="M1738.07,700.85a56.26,56.26,0,0,1-1.93-10.47,16.73,16.73,0,0,1,.31-4.83s84.6-17.48,92.9-20.86,81.07-27.75,81.07-27.75a106.52,106.52,0,0,1,4.8,12c.85,2.57,1.68,5.42,2.34,8.34-24.14,3-89.61,11.29-97.75,15.19C1811.91,676.23,1759.65,693.7,1738.07,700.85Z" transform="translate(-1133.34 -323.06)"/><path class="cls-5" d="M1843.71,659.56s-22.58,2.19-30.76,9.44l4.78,21.3s20.75-2.11,31.17-7.6Z" transform="translate(-1133.34 -323.06)"/><path class="cls-4" d="M1864.22,1644.71s0-13.59,1.94-18.11,9-22.91,9-22.91H1903s5.16,16.78,5.48,22.27,0,18.75,0,18.75Z" transform="translate(-1133.34 -323.06)"/><path class="cls-4" d="M2040.43,1644.71s0-13.59-1.94-18.11-9-22.91-9-22.91h-27.75s-5.17,16.78-5.49,22.27,0,18.75,0,18.75Z" transform="translate(-1133.34 -323.06)"/><path class="cls-13" d="M1971,879.9s-5.57,29.75-11.46,42.56L1926,938.93l47,92.8,64.45-58.19L2016,931.78s-2-41.35,4.54-55.52S1971,879.9,1971,879.9Z" transform="translate(-1133.34 -323.06)"/><path class="cls-14" d="M1970.21,884s5.68,23.09,22.73,25.22,23.88-16.47,23.88-16.47Z" transform="translate(-1133.34 -323.06)"/><path class="cls-13" d="M1992.29,900.55c-12.28-2.11-32.4-22-29.28-42.28l4.87-31.66c1.14-7.41,7.24-12.68,13.55-11.71l47,7.22c6.32,1,10.55,7.83,9.41,15.24l-4.59,29.88C2029.92,888.52,2006.36,903,1992.29,900.55Z" transform="translate(-1133.34 -323.06)"/><path class="cls-9" d="M1867.7,1174.2c-.09-3.7,4.83,147.19-2.4,232.86-7.15,84.61,0,202.33,0,202.33s23.22,12.81,48.39,0c0,0,27.6-163.43,27.43-202.33-.19-41.42,30-226.4,30-226.4Z" transform="translate(-1133.34 -323.06)"/><path class="cls-9" d="M2039.42,1609.39s-23.21,12.81-48.38,0c0,0-27.6-163.43-27.43-202.33.08-17.49-5.26-60.6-11.47-104.55-8.49-60.13-18.58-121.85-18.58-121.85l107.53-6.71s-8.87,148.52-1.61,233.11S2039.42,1609.39,2039.42,1609.39Z" transform="translate(-1133.34 -323.06)"/><path class="cls-15" d="M1982.21,860.42c-4.58-.71-13.59-3.14-14-11.35a7.29,7.29,0,0,1,2.27-6,8.62,8.62,0,0,1,7.14-1.81l14.1,2.16c2.68.42,4.43,1.47,5.21,3.15,1.31,2.82-.59,6.46-1.47,7.89-3,4.9-6.39,6.89-10.68,6.24C1984.62,860.69,1983.63,860.63,1982.21,860.42Zm-4.7-18.24a7.74,7.74,0,0,0-6.38,1.59,6.41,6.41,0,0,0-2,5.26c.2,4.21,2.87,7.29,7.94,9.16a27.82,27.82,0,0,0,7.76,1.57h.05c3.89.59,7-1.25,9.77-5.8.63-1,2.57-4.53,1.42-7-.64-1.37-2.16-2.25-4.51-2.61Z" transform="translate(-1133.34 -323.06)"/><path class="cls-15" d="M2014.72,865.42c-1.42-.22-2.38-.47-2.56-.51-4.28-.67-6.93-3.59-8.31-9.16-.41-1.64-1.13-5.67,1-8,1.25-1.36,3.24-1.85,5.92-1.43l14.09,2.16a8.64,8.64,0,0,1,6.27,3.89,7.29,7.29,0,0,1,.36,6.4C2028.63,866.52,2019.3,866.12,2014.72,865.42Zm-4.13-18.15c-2.35-.36-4.06,0-5.08,1.14-1.84,2-1,6-.76,7.11,1.29,5.18,3.7,7.87,7.58,8.46h.06a27.94,27.94,0,0,0,7.87.84c5.4-.26,8.87-2.4,10.32-6.35a6.38,6.38,0,0,0-.29-5.61,7.73,7.73,0,0,0-5.6-3.43Z" transform="translate(-1133.34 -323.06)"/><path class="cls-15" d="M1995.19,850.62a.55.55,0,0,1-.45-.4.55.55,0,0,1,.38-.69c.25-.07,6.16-1.7,10.66,1.65a.56.56,0,0,1,.11.79.55.55,0,0,1-.78.11c-4.07-3-9.62-1.49-9.68-1.47A.49.49,0,0,1,1995.19,850.62Z" transform="translate(-1133.34 -323.06)"/><path class="cls-7" d="M1982.78,938.87,1951,925.11s-16.42,130.6,5.5,138.68c0,0,62.56-111.09,58.3-125.35Z" transform="translate(-1133.34 -323.06)"/><path class="cls-16" d="M1962.68,916.83s-9,1.54-13.63,6c0,0,6.81,22.13,24.9,28.73l7.76-12.7S1967,931.89,1962.68,916.83Z" transform="translate(-1133.34 -323.06)"/><path class="cls-16" d="M1981.71,938.87s29.59-1.14,34-15.4a24.11,24.11,0,0,1,5.7,16.18s-9.37,14.14-32.78,14.3Z" transform="translate(-1133.34 -323.06)"/><path class="cls-17" d="M1984.18,878.34s15.74.7,22.69,3.5c0,0-4.8,5.69-11.09,4.72S1985.1,882.57,1984.18,878.34Z" transform="translate(-1133.34 -323.06)"/><path class="cls-13" d="M1872.7,832c-14.28,9-33.78,21.19-49.7,30.83a57.5,57.5,0,0,1-1.69-7.26C1816,821.87,1823.7,705,1823.7,705a33.91,33.91,0,0,1,10.78-3.13c10.36-.84,14.26,6.11,14.26,6.11S1866.79,810.79,1872.7,832Z" transform="translate(-1133.34 -323.06)"/><path class="cls-8" d="M2125.58,1238.5l-10.77,4.48c-17.23,6.13-35.81-2.14-41.44-19.54-7.59-23.44-8.37-48.69-11.18-69.47-1.38-10.22-3-31.29-9.17-47.7v0l10.82,363.32c-162.15,11.49-241.27-81.72-241.27-81.72-4.18-98.36,35.12-320,49.44-396.8-6.91-15.6-56-60.39-64.16-104.37-3.81-20.42,8.12-34.87,22.61-44.62,18.23-12.29,40.51-17.14,40.51-17.14L1923.37,895a33.12,33.12,0,0,1,4.4,5.75c4,8.24,25,21.9,25,21.9-.06.43,2.26,118.11,6.54,121.87,6.17-2.34,47.52-85.13,56.66-112.72a306.43,306.43,0,0,1,42.36,15.14s28.38,15.15,32.4,81.17c3.41,56,37.62,127.46,45.38,192.39A17.29,17.29,0,0,1,2125.58,1238.5Z" transform="translate(-1133.34 -323.06)"/><path class="cls-5" d="M1946.93,918.57s3.83,114.11,8.72,142.67l72.77-125.74-10-3.72L1960.87,1036l-5.67-113.37Z" transform="translate(-1133.34 -323.06)"/><path class="cls-7" d="M1962.68,914.13s-9,1.54-13.63,6c0,0,6.81,22.13,24.9,28.73l7.76-10S1967,929.2,1962.68,914.13Z" transform="translate(-1133.34 -323.06)"/><path class="cls-7" d="M1981.71,938.87s29.59-3.83,34-18.09a24.07,24.07,0,0,1,5.7,16.17s-9.37,14.14-32.78,14.31Z" transform="translate(-1133.34 -323.06)"/><circle class="cls-4" cx="810.34" cy="750.37" r="5.38"/><path class="cls-4" d="M1928.19,1121.83a5.38,5.38,0,1,1,5.37,5.38A5.38,5.38,0,0,1,1928.19,1121.83Z" transform="translate(-1133.34 -323.06)"/><path class="cls-10" d="M1928.41,851.77l1.79-1.7c-18-19-9.64-44.24-7.4-50a2,2,0,0,0-.44-2.12h0a1.09,1.09,0,0,0-1.79.39C1918.05,805.06,1909.63,832,1928.41,851.77Z" transform="translate(-1133.34 -323.06)"/><polygon class="cls-11" points="796.86 527.02 799.75 528.68 796.61 531.55 795.07 528.71 796.86 527.02"/><path class="cls-10" d="M1933.09,851.74s3.35,3.42,4.83,2.8c0,0-1.86,3.42-3.79,3.49,0,0-3.27-1.75-4.18-3.42Z" transform="translate(-1133.34 -323.06)"/><path class="cls-5" d="M1965.38,832s12.6.85,16.33-5.53c0,0,10.24,2.55,14.75-1.28,0,0,15.8,3.19,16.22-3.19,0,0,12.07,24.15,25.3,19.1s-21.16-29.53-21.16-29.53l-45,6Z" transform="translate(-1133.34 -323.06)"/><path class="cls-8" d="M1966.31,813.94l-2.58,11.22s35.15-12.48,78,12.36l-.5-18.07a12.26,12.26,0,0,0-4.43-9.1c-7.76-6.39-26.32-18.94-60.68-9C1971.35,802.8,1967.43,809.06,1966.31,813.94Z" transform="translate(-1133.34 -323.06)"/><path class="cls-13" d="M1812.71,675.58c-.13-.69-2.44-5.53.73-10s24-11.36,25.93-7.73.71,16.23-6,19S1813.22,678.38,1812.71,675.58Z" transform="translate(-1133.34 -323.06)"/><path class="cls-4" d="M1872,991.05c-6.91-15.6-56-60.39-64.16-104.37-3.81-20.42,8.12-34.87,22.61-44.62,0,0-6.79,30.88,12.47,58.75S1872,991.05,1872,991.05Z" transform="translate(-1133.34 -323.06)"/><path class="cls-4" d="M2114.81,1243c-17.23,6.13-35.81-2.14-41.44-19.54-7.59-23.44-8.37-48.69-11.18-69.47-1.38-10.22-3-31.29-9.17-47.7.58.9,19.24,30.4,36,78.14C2106.05,1232.91,2100.73,1240,2114.81,1243Z" transform="translate(-1133.34 -323.06)"/><path class="cls-18" d="M2855,1643.91h-91.45c-4.91-4.16,3.39-13.6,12-14.23,3.77-.28,8.52.5,14,1.65,1.26-16.71,8.45-91.86,35.53-88.84,30.46,3.38,0,33.09-8.61,50.68-6.37,13-13.1,31.72-16.18,40.54,2.48.53,5,1.06,7.65,1.54,4-12.4,19.06-54.09,38.16-51.66,22.43,2.85,13.41,19.56-2.48,29.48-11.67,7.3-26,17.67-32.79,22.68a96.54,96.54,0,0,0,17.89,1.43C2844.37,1636.81,2852,1641.43,2855,1643.91Z" transform="translate(-1133.34 -323.06)"/><path class="cls-18" d="M1525.27,1643.91s-42.18-115.83-71.79-106S1525.27,1643.91,1525.27,1643.91Z" transform="translate(-1133.34 -323.06)"/><path class="cls-18" d="M1509.12,1643.91c-3.59,0-70.89-69.84-75.38-51.56S1509.12,1643.91,1509.12,1643.91Z" transform="translate(-1133.34 -323.06)"/><path class="cls-18" d="M1580.91,1643.91s-27.84-25.52-63.08-18.87-50.29,13.92-72.43,8.88-33.44,10-33.44,10Z" transform="translate(-1133.34 -323.06)"/><path class="cls-19" d="M2432.33,712.23s-10.9,8.2-23.47,7.52c-9.33-.51-18.87-8.68-19.25-9.23l-6.81,13.21s17.41,9.48,31.78,6c4.41-1.07,11.41-5.82,14.51-9.28A12.61,12.61,0,0,0,2432.33,712.23Z" transform="translate(-1133.34 -323.06)"/><path class="cls-20" d="M2430.78,685.44l18.23-8.56s-.75,38.77-32.14,52.06C2416.87,728.94,2435.82,701.55,2430.78,685.44Z" transform="translate(-1133.34 -323.06)"/><path class="cls-19" d="M1487.76,1065s-10.9,8.19-23.47,7.51c-9.33-.51-18.87-8.68-19.25-9.23l-6.81,13.21s17.4,9.48,31.78,6c4.41-1.07,11.41-5.82,14.51-9.28A12.59,12.59,0,0,0,1487.76,1065Z" transform="translate(-1133.34 -323.06)"/><path class="cls-20" d="M1486.21,1038.22l18.23-8.57s-.75,38.77-32.14,52.06C1472.3,1081.71,1491.25,1054.32,1486.21,1038.22Z" transform="translate(-1133.34 -323.06)"/><path class="cls-21" d="M1965.09,460s26.51-18.41,46.41,9l21.85-9.4s-10.79-17-53.15-9.49C1952.49,455.06,1965.09,460,1965.09,460Z" transform="translate(-1133.34 -323.06)"/><path class="cls-22" d="M1939,478s7.22-29.79,61.58-29.79c0,0-20.37,1.93-36.28,28.37Z" transform="translate(-1133.34 -323.06)"/><path class="cls-23" d="M1791.33,579.62s-14.64-9.25-16.18-20.42c0,0-14.26.77-17.34,5.4,0,0,6.55,18.49,14.26,21.95C1772.07,586.55,1789.4,587.71,1791.33,579.62Z" transform="translate(-1133.34 -323.06)"/><path class="cls-23" d="M2761.86,1358.6s-14.64-9.25-16.18-20.42c0,0-14.25.77-17.33,5.39,0,0,6.55,18.49,14.25,22C2742.6,1365.53,2759.94,1366.69,2761.86,1358.6Z" transform="translate(-1133.34 -323.06)"/><path class="cls-23" d="M1362.23,1332.73s-14.64-9.25-16.18-20.42c0,0-14.25.77-17.33,5.4,0,0,6.55,18.49,14.25,22C1343,1339.66,1360.31,1340.82,1362.23,1332.73Z" transform="translate(-1133.34 -323.06)"/></svg>