<svg xmlns="http://www.w3.org/2000/svg" viewBox="0 0 329.38 496.44"><defs><style>.cls-1,.cls-3,.cls-7{fill:#1d1d1b;}.cls-1,.cls-7{stroke:#f39200;}.cls-1,.cls-7,.cls-9{stroke-miterlimit:10;}.cls-2,.cls-9{fill:#f39200;}.cls-4,.cls-6{fill:#f39323;}.cls-5{opacity:0.9;}.cls-6{opacity:0.5;}.cls-7{font-size:80px;}.cls-7,.cls-9{font-family:PTSans-Bold, PT Sans;font-weight:700;}.cls-8{letter-spacing:-0.04em;}.cls-9{font-size:92px;stroke:#1d1d1b;}</style></defs><title>Fichier 1</title><g id="Calque_2" data-name="Calque 2"><g id="Calque_1-2" data-name="Calque 1"><path class="cls-1" d="M217.82,192a15.36,15.36,0,0,0,2.36-.46c9.4-3.37,22.19-4.26,27.2-10.9,4.75-6.29,1.44-18.63,1.49-28.31.08-16.62,0-33.25,0-49.87,0-4.25-.15-9.47,5.73-8.72,2.11.27,5.06,5.48,5.11,8.47.45,26.87.24,53.75.45,80.62,0,5.66-2.38,8.42-7.71,10.1-19.16,6-38.16,12.56-57.35,18.48-5.12,1.58-7.31,3.81-7.06,9.27a20.77,20.77,0,0,1-2.27,10.25c-7.82,14.69-16,29.23-24.18,43.71-3.9,6.86-6.43,6.79-10.12-.22-7.61-14.49-15-29.07-22.49-43.64-.87-1.7-2.2-3.81-1.84-5.39,2.72-11.71-5.6-13.6-13.78-16.16-17-5.34-33.92-11.14-51-16.46-5.36-1.68-7.52-4.52-7.48-10.2.22-26.87-.09-53.75.32-80.62,0-2.86,3.55-5.68,5.45-8.51,1.86,2.86,5.28,5.7,5.34,8.59.45,24.37.4,48.76.19,73.14,0,5.21,1.27,8,6.78,9.35,8.28,2.06,16.3,5.14,25.3,6.28-4.62-3.82-9.76-7.19-13.68-11.63-2.83-3.19-5.62-7.77-5.69-11.79-.49-26.59-.34-53.19-.09-79.79,0-3,1.49-8.06,3.11-8.4,2.81-.6,6.63,1.17,9.36,3,4.63,3,8.51,7.23,13.13,10.29C111.66,97.2,115.6,103,112.29,113L91.13,96.52c-.51,2.23-1.12,3.67-1.13,5.12-.07,20.78-.15,41.56.06,62.34,0,2.46,1,5.71,2.77,7.22,10.5,9.08,21.36,17.77,33.78,28V90.26c11.84,0,22.37-.15,32.89.19,1.3,0,3.59,2.71,3.6,4.17.21,29.33.16,58.66.16,88.64H152.19V101.67H138.78V216.13c6.93-3.77,13.11-9.7,19.4-9.82,5.82-.12,11.76,6,18.65,9.92V90.68h11.11v108.6c8.91-7.15,15.84-13.8,23.8-18.85,11.14-7.07,14.84-16.13,13.76-29.13-1.27-15.14-.29-30.45-.34-45.69,0-2.65-.29-5.3-.53-9.53l-21.68,17C200.83,105,201.3,98.86,208.57,94c6-4,11.21-9.15,17-13.49,6.07-4.56,10.55-2.82,10.6,4.42q.32,42.8-.19,85.61c0,2.75-2.53,6-4.74,8.09-4.55,4.37-9.68,8.15-14.57,12.17Zm-77,38.24c6.77,6,4.36,20.42,18.15,18.27,10.59-1.65,9.55-13.09,15-19.2C157.38,216.7,156.17,216.73,140.77,230.24Z"/><path class="cls-2" d="M127.28,80.57V69.49c19.13,0,38-.27,56.83.42,1.91.07,3.6,6,6.22,10.65Z"/><path class="cls-2" d="M140.77,228.93c15.4-13.52,16.6-13.54,33.15-.93-5.44,6.11-4.41,17.55-15,19.2C145.13,249.35,147.54,234.92,140.77,228.93Z"/><path class="cls-3" d="M138.25,7.08l-10,28.11.11,0c-1.77,5.32,13,15.11,29.49,20.16s34.64,5.33,36.64.08l-.1,0,10-28.11Z"/><polygon class="cls-4" points="232.69 34.04 171.21 2.74 109.18 0 108.51 1.89 169.99 36.59 232.02 35.92 232.69 34.04"/><polygon class="cls-3" points="109.28 0.03 171.28 2.76 232.73 34.05 170.73 34.72 109.28 0.03"/><path class="cls-4" d="M125.23,24a.44.44,0,0,1-.54.25l-2.44-.75A.39.39,0,0,1,122,23h0a.44.44,0,0,1,.54-.25l2.44.75a.39.39,0,0,1,.27.5Z"/><path class="cls-4" d="M125,24.77a.44.44,0,0,1-.54.25L122,24.28a.39.39,0,0,1-.27-.5h0a.44.44,0,0,1,.54-.25l2.44.75a.39.39,0,0,1,.27.5Z"/><path class="cls-4" d="M125.5,23.26a.44.44,0,0,1-.54.25l-2.44-.75a.39.39,0,0,1-.27-.5h0a.44.44,0,0,1,.54-.25l2.44.75a.39.39,0,0,1,.27.5Z"/><polygon class="cls-4" points="131.99 12.79 134.94 14.69 165.2 18.53 162.78 16.7 131.99 12.79"/><path class="cls-4" d="M123.34,22.71c1.25-9.89,7.71-11.17,11.45-11,5.66.18,18.85,2.46,26.72,3.82,2.66.46,4.76.82,5.24.87l-.17,1.48c-.55-.05-2.47-.39-5.37-.89-7.32-1.27-20.94-3.63-26.48-3.8-3.89-.12-8.76,1.47-9.8,9.73Z"/><path class="cls-4" d="M171.59,15.41c-3.28-1-6.69-.38-8.64-.13.63.85,1.11,2.08.81,2.36a60,60,0,0,0,6.11,2.59c5.17,1.58,9.75,1.79,10.22.45S176.76,17,171.59,15.41Z"/><path class="cls-4" d="M122,28.75c3.47.32,4.38,4.9,4.48,7.62s-.8,5.43-4.5,5.24c-3.41-.18-6.36-.89-6-4.61C116.23,33.83,118,28.37,122,28.75Z"/><g class="cls-5"><path class="cls-4" d="M122.12,40.09c0,.17,0,.34-.06.5C122.09,40.45,122.11,40.28,122.12,40.09Z"/><path class="cls-4" d="M122.35,35.78c-.14,1.55-.14,3.24-.23,4.31C122.27,38.65,122.29,37.22,122.35,35.78Z"/><path class="cls-6" d="M123,29.78C119.55,29,117.4,40.18,118.74,40c0,0,.49,1.4,2.9-7.95-.85,2.58-2.1,8.26-.51,8.67,1.65-.35.27-6.33,1.59-8.93a29.83,29.83,0,0,0-.38,4c.16-1.7.49-3.24,1.3-3.65.57,2.47-2,7.62.12,8.1C125.51,40.27,125.43,30.34,123,29.78Z"/></g><path class="cls-4" d="M125.17,27.18a2.65,2.65,0,0,1-3,2.1,2.52,2.52,0,0,1-2.26-2.82,2.66,2.66,0,0,1,3-2.1A2.52,2.52,0,0,1,125.17,27.18Z"/><path class="cls-6" d="M124.75,26.37a1.46,1.46,0,0,1-1.67,1.15A1.39,1.39,0,0,1,121.84,26a1.46,1.46,0,0,1,1.67-1.15A1.39,1.39,0,0,1,124.75,26.37Z"/><text class="cls-7" transform="translate(39.49 348.13)">Dama<tspan class="cls-8" x="195.52" y="0">y</tspan></text><text class="cls-9" transform="translate(0.5 443.97)">Diangue</text></g></g></svg>